G04 #@! TF.GenerationSoftware,KiCad,Pcbnew,(5.1.4)-1*
G04 #@! TF.CreationDate,2020-02-10T21:36:07-05:00*
G04 #@! TF.ProjectId,xmas,786d6173-2e6b-4696-9361-645f70636258,rev?*
G04 #@! TF.SameCoordinates,Original*
G04 #@! TF.FileFunction,Soldermask,Top*
G04 #@! TF.FilePolarity,Negative*
%FSLAX46Y46*%
G04 Gerber Fmt 4.6, Leading zero omitted, Abs format (unit mm)*
G04 Created by KiCad (PCBNEW (5.1.4)-1) date 2020-02-10 21:36:07*
%MOMM*%
%LPD*%
G04 APERTURE LIST*
%ADD10C,1.524000*%
%ADD11R,1.500000X1.000000*%
%ADD12C,1.800000*%
%ADD13C,2.000000*%
%ADD14R,2.000000X2.000000*%
%ADD15C,0.100000*%
%ADD16C,1.425000*%
%ADD17O,1.900000X3.500000*%
%ADD18C,1.133000*%
%ADD19R,1.133000X1.133000*%
%ADD20R,0.650000X1.525000*%
G04 APERTURE END LIST*
D10*
X153162000Y-85852000D03*
X137414000Y-85852000D03*
X153162000Y-57404000D03*
X137414000Y-57404000D03*
D11*
X235114000Y-50368000D03*
X235114000Y-47168000D03*
X230214000Y-50368000D03*
X230214000Y-47168000D03*
D12*
X219710000Y-64516000D03*
X219710000Y-67056000D03*
X219710000Y-69596000D03*
X219710000Y-72136000D03*
X219710000Y-74676000D03*
X219710000Y-77216000D03*
X219710000Y-79756000D03*
X219710000Y-82296000D03*
X242570000Y-82296000D03*
X242570000Y-79756000D03*
X242570000Y-77216000D03*
X242570000Y-74676000D03*
X242570000Y-72136000D03*
X242570000Y-69596000D03*
X242570000Y-67056000D03*
X242570000Y-64516000D03*
D13*
X154432000Y-102108000D03*
X151892000Y-102108000D03*
D14*
X149352000Y-102108000D03*
D15*
G36*
X152342504Y-111902204D02*
G01*
X152366773Y-111905804D01*
X152390571Y-111911765D01*
X152413671Y-111920030D01*
X152435849Y-111930520D01*
X152456893Y-111943133D01*
X152476598Y-111957747D01*
X152494777Y-111974223D01*
X152511253Y-111992402D01*
X152525867Y-112012107D01*
X152538480Y-112033151D01*
X152548970Y-112055329D01*
X152557235Y-112078429D01*
X152563196Y-112102227D01*
X152566796Y-112126496D01*
X152568000Y-112151000D01*
X152568000Y-113401000D01*
X152566796Y-113425504D01*
X152563196Y-113449773D01*
X152557235Y-113473571D01*
X152548970Y-113496671D01*
X152538480Y-113518849D01*
X152525867Y-113539893D01*
X152511253Y-113559598D01*
X152494777Y-113577777D01*
X152476598Y-113594253D01*
X152456893Y-113608867D01*
X152435849Y-113621480D01*
X152413671Y-113631970D01*
X152390571Y-113640235D01*
X152366773Y-113646196D01*
X152342504Y-113649796D01*
X152318000Y-113651000D01*
X151393000Y-113651000D01*
X151368496Y-113649796D01*
X151344227Y-113646196D01*
X151320429Y-113640235D01*
X151297329Y-113631970D01*
X151275151Y-113621480D01*
X151254107Y-113608867D01*
X151234402Y-113594253D01*
X151216223Y-113577777D01*
X151199747Y-113559598D01*
X151185133Y-113539893D01*
X151172520Y-113518849D01*
X151162030Y-113496671D01*
X151153765Y-113473571D01*
X151147804Y-113449773D01*
X151144204Y-113425504D01*
X151143000Y-113401000D01*
X151143000Y-112151000D01*
X151144204Y-112126496D01*
X151147804Y-112102227D01*
X151153765Y-112078429D01*
X151162030Y-112055329D01*
X151172520Y-112033151D01*
X151185133Y-112012107D01*
X151199747Y-111992402D01*
X151216223Y-111974223D01*
X151234402Y-111957747D01*
X151254107Y-111943133D01*
X151275151Y-111930520D01*
X151297329Y-111920030D01*
X151320429Y-111911765D01*
X151344227Y-111905804D01*
X151368496Y-111902204D01*
X151393000Y-111901000D01*
X152318000Y-111901000D01*
X152342504Y-111902204D01*
X152342504Y-111902204D01*
G37*
D16*
X151855500Y-112776000D03*
D15*
G36*
X149367504Y-111902204D02*
G01*
X149391773Y-111905804D01*
X149415571Y-111911765D01*
X149438671Y-111920030D01*
X149460849Y-111930520D01*
X149481893Y-111943133D01*
X149501598Y-111957747D01*
X149519777Y-111974223D01*
X149536253Y-111992402D01*
X149550867Y-112012107D01*
X149563480Y-112033151D01*
X149573970Y-112055329D01*
X149582235Y-112078429D01*
X149588196Y-112102227D01*
X149591796Y-112126496D01*
X149593000Y-112151000D01*
X149593000Y-113401000D01*
X149591796Y-113425504D01*
X149588196Y-113449773D01*
X149582235Y-113473571D01*
X149573970Y-113496671D01*
X149563480Y-113518849D01*
X149550867Y-113539893D01*
X149536253Y-113559598D01*
X149519777Y-113577777D01*
X149501598Y-113594253D01*
X149481893Y-113608867D01*
X149460849Y-113621480D01*
X149438671Y-113631970D01*
X149415571Y-113640235D01*
X149391773Y-113646196D01*
X149367504Y-113649796D01*
X149343000Y-113651000D01*
X148418000Y-113651000D01*
X148393496Y-113649796D01*
X148369227Y-113646196D01*
X148345429Y-113640235D01*
X148322329Y-113631970D01*
X148300151Y-113621480D01*
X148279107Y-113608867D01*
X148259402Y-113594253D01*
X148241223Y-113577777D01*
X148224747Y-113559598D01*
X148210133Y-113539893D01*
X148197520Y-113518849D01*
X148187030Y-113496671D01*
X148178765Y-113473571D01*
X148172804Y-113449773D01*
X148169204Y-113425504D01*
X148168000Y-113401000D01*
X148168000Y-112151000D01*
X148169204Y-112126496D01*
X148172804Y-112102227D01*
X148178765Y-112078429D01*
X148187030Y-112055329D01*
X148197520Y-112033151D01*
X148210133Y-112012107D01*
X148224747Y-111992402D01*
X148241223Y-111974223D01*
X148259402Y-111957747D01*
X148279107Y-111943133D01*
X148300151Y-111930520D01*
X148322329Y-111920030D01*
X148345429Y-111911765D01*
X148369227Y-111905804D01*
X148393496Y-111902204D01*
X148418000Y-111901000D01*
X149343000Y-111901000D01*
X149367504Y-111902204D01*
X149367504Y-111902204D01*
G37*
D16*
X148880500Y-112776000D03*
D15*
G36*
X149367504Y-107330204D02*
G01*
X149391773Y-107333804D01*
X149415571Y-107339765D01*
X149438671Y-107348030D01*
X149460849Y-107358520D01*
X149481893Y-107371133D01*
X149501598Y-107385747D01*
X149519777Y-107402223D01*
X149536253Y-107420402D01*
X149550867Y-107440107D01*
X149563480Y-107461151D01*
X149573970Y-107483329D01*
X149582235Y-107506429D01*
X149588196Y-107530227D01*
X149591796Y-107554496D01*
X149593000Y-107579000D01*
X149593000Y-108829000D01*
X149591796Y-108853504D01*
X149588196Y-108877773D01*
X149582235Y-108901571D01*
X149573970Y-108924671D01*
X149563480Y-108946849D01*
X149550867Y-108967893D01*
X149536253Y-108987598D01*
X149519777Y-109005777D01*
X149501598Y-109022253D01*
X149481893Y-109036867D01*
X149460849Y-109049480D01*
X149438671Y-109059970D01*
X149415571Y-109068235D01*
X149391773Y-109074196D01*
X149367504Y-109077796D01*
X149343000Y-109079000D01*
X148418000Y-109079000D01*
X148393496Y-109077796D01*
X148369227Y-109074196D01*
X148345429Y-109068235D01*
X148322329Y-109059970D01*
X148300151Y-109049480D01*
X148279107Y-109036867D01*
X148259402Y-109022253D01*
X148241223Y-109005777D01*
X148224747Y-108987598D01*
X148210133Y-108967893D01*
X148197520Y-108946849D01*
X148187030Y-108924671D01*
X148178765Y-108901571D01*
X148172804Y-108877773D01*
X148169204Y-108853504D01*
X148168000Y-108829000D01*
X148168000Y-107579000D01*
X148169204Y-107554496D01*
X148172804Y-107530227D01*
X148178765Y-107506429D01*
X148187030Y-107483329D01*
X148197520Y-107461151D01*
X148210133Y-107440107D01*
X148224747Y-107420402D01*
X148241223Y-107402223D01*
X148259402Y-107385747D01*
X148279107Y-107371133D01*
X148300151Y-107358520D01*
X148322329Y-107348030D01*
X148345429Y-107339765D01*
X148369227Y-107333804D01*
X148393496Y-107330204D01*
X148418000Y-107329000D01*
X149343000Y-107329000D01*
X149367504Y-107330204D01*
X149367504Y-107330204D01*
G37*
D16*
X148880500Y-108204000D03*
D15*
G36*
X152342504Y-107330204D02*
G01*
X152366773Y-107333804D01*
X152390571Y-107339765D01*
X152413671Y-107348030D01*
X152435849Y-107358520D01*
X152456893Y-107371133D01*
X152476598Y-107385747D01*
X152494777Y-107402223D01*
X152511253Y-107420402D01*
X152525867Y-107440107D01*
X152538480Y-107461151D01*
X152548970Y-107483329D01*
X152557235Y-107506429D01*
X152563196Y-107530227D01*
X152566796Y-107554496D01*
X152568000Y-107579000D01*
X152568000Y-108829000D01*
X152566796Y-108853504D01*
X152563196Y-108877773D01*
X152557235Y-108901571D01*
X152548970Y-108924671D01*
X152538480Y-108946849D01*
X152525867Y-108967893D01*
X152511253Y-108987598D01*
X152494777Y-109005777D01*
X152476598Y-109022253D01*
X152456893Y-109036867D01*
X152435849Y-109049480D01*
X152413671Y-109059970D01*
X152390571Y-109068235D01*
X152366773Y-109074196D01*
X152342504Y-109077796D01*
X152318000Y-109079000D01*
X151393000Y-109079000D01*
X151368496Y-109077796D01*
X151344227Y-109074196D01*
X151320429Y-109068235D01*
X151297329Y-109059970D01*
X151275151Y-109049480D01*
X151254107Y-109036867D01*
X151234402Y-109022253D01*
X151216223Y-109005777D01*
X151199747Y-108987598D01*
X151185133Y-108967893D01*
X151172520Y-108946849D01*
X151162030Y-108924671D01*
X151153765Y-108901571D01*
X151147804Y-108877773D01*
X151144204Y-108853504D01*
X151143000Y-108829000D01*
X151143000Y-107579000D01*
X151144204Y-107554496D01*
X151147804Y-107530227D01*
X151153765Y-107506429D01*
X151162030Y-107483329D01*
X151172520Y-107461151D01*
X151185133Y-107440107D01*
X151199747Y-107420402D01*
X151216223Y-107402223D01*
X151234402Y-107385747D01*
X151254107Y-107371133D01*
X151275151Y-107358520D01*
X151297329Y-107348030D01*
X151320429Y-107339765D01*
X151344227Y-107333804D01*
X151368496Y-107330204D01*
X151393000Y-107329000D01*
X152318000Y-107329000D01*
X152342504Y-107330204D01*
X152342504Y-107330204D01*
G37*
D16*
X151855500Y-108204000D03*
D11*
X232754000Y-100000000D03*
X232754000Y-103200000D03*
X237654000Y-100000000D03*
X237654000Y-103200000D03*
X190918000Y-133172000D03*
X190918000Y-129972000D03*
X186018000Y-133172000D03*
X186018000Y-129972000D03*
X137250000Y-100000000D03*
X137250000Y-103200000D03*
X142150000Y-100000000D03*
X142150000Y-103200000D03*
X139790000Y-46660000D03*
X139790000Y-49860000D03*
X144690000Y-46660000D03*
X144690000Y-49860000D03*
X186018000Y-19228000D03*
X186018000Y-22428000D03*
X190918000Y-19228000D03*
X190918000Y-22428000D03*
D15*
G36*
X189117504Y-111085204D02*
G01*
X189141773Y-111088804D01*
X189165571Y-111094765D01*
X189188671Y-111103030D01*
X189210849Y-111113520D01*
X189231893Y-111126133D01*
X189251598Y-111140747D01*
X189269777Y-111157223D01*
X189286253Y-111175402D01*
X189300867Y-111195107D01*
X189313480Y-111216151D01*
X189323970Y-111238329D01*
X189332235Y-111261429D01*
X189338196Y-111285227D01*
X189341796Y-111309496D01*
X189343000Y-111334000D01*
X189343000Y-112259000D01*
X189341796Y-112283504D01*
X189338196Y-112307773D01*
X189332235Y-112331571D01*
X189323970Y-112354671D01*
X189313480Y-112376849D01*
X189300867Y-112397893D01*
X189286253Y-112417598D01*
X189269777Y-112435777D01*
X189251598Y-112452253D01*
X189231893Y-112466867D01*
X189210849Y-112479480D01*
X189188671Y-112489970D01*
X189165571Y-112498235D01*
X189141773Y-112504196D01*
X189117504Y-112507796D01*
X189093000Y-112509000D01*
X187843000Y-112509000D01*
X187818496Y-112507796D01*
X187794227Y-112504196D01*
X187770429Y-112498235D01*
X187747329Y-112489970D01*
X187725151Y-112479480D01*
X187704107Y-112466867D01*
X187684402Y-112452253D01*
X187666223Y-112435777D01*
X187649747Y-112417598D01*
X187635133Y-112397893D01*
X187622520Y-112376849D01*
X187612030Y-112354671D01*
X187603765Y-112331571D01*
X187597804Y-112307773D01*
X187594204Y-112283504D01*
X187593000Y-112259000D01*
X187593000Y-111334000D01*
X187594204Y-111309496D01*
X187597804Y-111285227D01*
X187603765Y-111261429D01*
X187612030Y-111238329D01*
X187622520Y-111216151D01*
X187635133Y-111195107D01*
X187649747Y-111175402D01*
X187666223Y-111157223D01*
X187684402Y-111140747D01*
X187704107Y-111126133D01*
X187725151Y-111113520D01*
X187747329Y-111103030D01*
X187770429Y-111094765D01*
X187794227Y-111088804D01*
X187818496Y-111085204D01*
X187843000Y-111084000D01*
X189093000Y-111084000D01*
X189117504Y-111085204D01*
X189117504Y-111085204D01*
G37*
D16*
X188468000Y-111796500D03*
D15*
G36*
X189117504Y-114060204D02*
G01*
X189141773Y-114063804D01*
X189165571Y-114069765D01*
X189188671Y-114078030D01*
X189210849Y-114088520D01*
X189231893Y-114101133D01*
X189251598Y-114115747D01*
X189269777Y-114132223D01*
X189286253Y-114150402D01*
X189300867Y-114170107D01*
X189313480Y-114191151D01*
X189323970Y-114213329D01*
X189332235Y-114236429D01*
X189338196Y-114260227D01*
X189341796Y-114284496D01*
X189343000Y-114309000D01*
X189343000Y-115234000D01*
X189341796Y-115258504D01*
X189338196Y-115282773D01*
X189332235Y-115306571D01*
X189323970Y-115329671D01*
X189313480Y-115351849D01*
X189300867Y-115372893D01*
X189286253Y-115392598D01*
X189269777Y-115410777D01*
X189251598Y-115427253D01*
X189231893Y-115441867D01*
X189210849Y-115454480D01*
X189188671Y-115464970D01*
X189165571Y-115473235D01*
X189141773Y-115479196D01*
X189117504Y-115482796D01*
X189093000Y-115484000D01*
X187843000Y-115484000D01*
X187818496Y-115482796D01*
X187794227Y-115479196D01*
X187770429Y-115473235D01*
X187747329Y-115464970D01*
X187725151Y-115454480D01*
X187704107Y-115441867D01*
X187684402Y-115427253D01*
X187666223Y-115410777D01*
X187649747Y-115392598D01*
X187635133Y-115372893D01*
X187622520Y-115351849D01*
X187612030Y-115329671D01*
X187603765Y-115306571D01*
X187597804Y-115282773D01*
X187594204Y-115258504D01*
X187593000Y-115234000D01*
X187593000Y-114309000D01*
X187594204Y-114284496D01*
X187597804Y-114260227D01*
X187603765Y-114236429D01*
X187612030Y-114213329D01*
X187622520Y-114191151D01*
X187635133Y-114170107D01*
X187649747Y-114150402D01*
X187666223Y-114132223D01*
X187684402Y-114115747D01*
X187704107Y-114101133D01*
X187725151Y-114088520D01*
X187747329Y-114078030D01*
X187770429Y-114069765D01*
X187794227Y-114063804D01*
X187818496Y-114060204D01*
X187843000Y-114059000D01*
X189093000Y-114059000D01*
X189117504Y-114060204D01*
X189117504Y-114060204D01*
G37*
D16*
X188468000Y-114771500D03*
D17*
X199719359Y-91186000D03*
X196896445Y-88646000D03*
X212090000Y-88646000D03*
X209220640Y-91186000D03*
X206248000Y-92456000D03*
X167207359Y-90932000D03*
X164384445Y-88392000D03*
X179578000Y-88392000D03*
X176708640Y-90932000D03*
X173736000Y-92202000D03*
D18*
X161798000Y-100782000D03*
X164338000Y-100782000D03*
X166878000Y-100782000D03*
X169418000Y-100782000D03*
X171958000Y-100782000D03*
X174498000Y-100782000D03*
X177038000Y-100782000D03*
X179578000Y-100782000D03*
X182118000Y-100782000D03*
X182118000Y-108514000D03*
X179578000Y-108514000D03*
X177038000Y-108514000D03*
X174498000Y-108514000D03*
X171958000Y-108514000D03*
X169418000Y-108514000D03*
X166878000Y-108514000D03*
X164338000Y-108514000D03*
D19*
X161798000Y-108514000D03*
D20*
X167513000Y-118790000D03*
X168783000Y-118790000D03*
X170053000Y-118790000D03*
X171323000Y-118790000D03*
X172593000Y-118790000D03*
X173863000Y-118790000D03*
X175133000Y-118790000D03*
X176403000Y-118790000D03*
X176403000Y-113366000D03*
X175133000Y-113366000D03*
X173863000Y-113366000D03*
X172593000Y-113366000D03*
X171323000Y-113366000D03*
X170053000Y-113366000D03*
X168783000Y-113366000D03*
X167513000Y-113366000D03*
X200025000Y-113366000D03*
X201295000Y-113366000D03*
X202565000Y-113366000D03*
X203835000Y-113366000D03*
X205105000Y-113366000D03*
X206375000Y-113366000D03*
X207645000Y-113366000D03*
X208915000Y-113366000D03*
X208915000Y-118790000D03*
X207645000Y-118790000D03*
X206375000Y-118790000D03*
X205105000Y-118790000D03*
X203835000Y-118790000D03*
X202565000Y-118790000D03*
X201295000Y-118790000D03*
X200025000Y-118790000D03*
D19*
X194310000Y-108514000D03*
D18*
X196850000Y-108514000D03*
X199390000Y-108514000D03*
X201930000Y-108514000D03*
X204470000Y-108514000D03*
X207010000Y-108514000D03*
X209550000Y-108514000D03*
X212090000Y-108514000D03*
X214630000Y-108514000D03*
X214630000Y-100782000D03*
X212090000Y-100782000D03*
X209550000Y-100782000D03*
X207010000Y-100782000D03*
X204470000Y-100782000D03*
X201930000Y-100782000D03*
X199390000Y-100782000D03*
X196850000Y-100782000D03*
X194310000Y-100782000D03*
M02*
