G04 #@! TF.GenerationSoftware,KiCad,Pcbnew,(5.1.4)-1*
G04 #@! TF.CreationDate,2020-02-10T21:36:07-05:00*
G04 #@! TF.ProjectId,xmas,786d6173-2e6b-4696-9361-645f70636258,rev?*
G04 #@! TF.SameCoordinates,Original*
G04 #@! TF.FileFunction,Soldermask,Bot*
G04 #@! TF.FilePolarity,Negative*
%FSLAX46Y46*%
G04 Gerber Fmt 4.6, Leading zero omitted, Abs format (unit mm)*
G04 Created by KiCad (PCBNEW (5.1.4)-1) date 2020-02-10 21:36:07*
%MOMM*%
%LPD*%
G04 APERTURE LIST*
%ADD10C,1.524000*%
%ADD11C,1.800000*%
%ADD12C,2.000000*%
%ADD13R,2.000000X2.000000*%
%ADD14C,0.100000*%
%ADD15C,1.425000*%
%ADD16O,1.900000X3.500000*%
%ADD17C,1.133000*%
%ADD18R,1.133000X1.133000*%
G04 APERTURE END LIST*
D10*
X153162000Y-85852000D03*
X137414000Y-85852000D03*
X153162000Y-57404000D03*
X137414000Y-57404000D03*
D11*
X219710000Y-64516000D03*
X219710000Y-67056000D03*
X219710000Y-69596000D03*
X219710000Y-72136000D03*
X219710000Y-74676000D03*
X219710000Y-77216000D03*
X219710000Y-79756000D03*
X219710000Y-82296000D03*
X242570000Y-82296000D03*
X242570000Y-79756000D03*
X242570000Y-77216000D03*
X242570000Y-74676000D03*
X242570000Y-72136000D03*
X242570000Y-69596000D03*
X242570000Y-67056000D03*
X242570000Y-64516000D03*
D12*
X154432000Y-102108000D03*
X151892000Y-102108000D03*
D13*
X149352000Y-102108000D03*
D14*
G36*
X170630504Y-110124204D02*
G01*
X170654773Y-110127804D01*
X170678571Y-110133765D01*
X170701671Y-110142030D01*
X170723849Y-110152520D01*
X170744893Y-110165133D01*
X170764598Y-110179747D01*
X170782777Y-110196223D01*
X170799253Y-110214402D01*
X170813867Y-110234107D01*
X170826480Y-110255151D01*
X170836970Y-110277329D01*
X170845235Y-110300429D01*
X170851196Y-110324227D01*
X170854796Y-110348496D01*
X170856000Y-110373000D01*
X170856000Y-111623000D01*
X170854796Y-111647504D01*
X170851196Y-111671773D01*
X170845235Y-111695571D01*
X170836970Y-111718671D01*
X170826480Y-111740849D01*
X170813867Y-111761893D01*
X170799253Y-111781598D01*
X170782777Y-111799777D01*
X170764598Y-111816253D01*
X170744893Y-111830867D01*
X170723849Y-111843480D01*
X170701671Y-111853970D01*
X170678571Y-111862235D01*
X170654773Y-111868196D01*
X170630504Y-111871796D01*
X170606000Y-111873000D01*
X169681000Y-111873000D01*
X169656496Y-111871796D01*
X169632227Y-111868196D01*
X169608429Y-111862235D01*
X169585329Y-111853970D01*
X169563151Y-111843480D01*
X169542107Y-111830867D01*
X169522402Y-111816253D01*
X169504223Y-111799777D01*
X169487747Y-111781598D01*
X169473133Y-111761893D01*
X169460520Y-111740849D01*
X169450030Y-111718671D01*
X169441765Y-111695571D01*
X169435804Y-111671773D01*
X169432204Y-111647504D01*
X169431000Y-111623000D01*
X169431000Y-110373000D01*
X169432204Y-110348496D01*
X169435804Y-110324227D01*
X169441765Y-110300429D01*
X169450030Y-110277329D01*
X169460520Y-110255151D01*
X169473133Y-110234107D01*
X169487747Y-110214402D01*
X169504223Y-110196223D01*
X169522402Y-110179747D01*
X169542107Y-110165133D01*
X169563151Y-110152520D01*
X169585329Y-110142030D01*
X169608429Y-110133765D01*
X169632227Y-110127804D01*
X169656496Y-110124204D01*
X169681000Y-110123000D01*
X170606000Y-110123000D01*
X170630504Y-110124204D01*
X170630504Y-110124204D01*
G37*
D15*
X170143500Y-110998000D03*
D14*
G36*
X167655504Y-110124204D02*
G01*
X167679773Y-110127804D01*
X167703571Y-110133765D01*
X167726671Y-110142030D01*
X167748849Y-110152520D01*
X167769893Y-110165133D01*
X167789598Y-110179747D01*
X167807777Y-110196223D01*
X167824253Y-110214402D01*
X167838867Y-110234107D01*
X167851480Y-110255151D01*
X167861970Y-110277329D01*
X167870235Y-110300429D01*
X167876196Y-110324227D01*
X167879796Y-110348496D01*
X167881000Y-110373000D01*
X167881000Y-111623000D01*
X167879796Y-111647504D01*
X167876196Y-111671773D01*
X167870235Y-111695571D01*
X167861970Y-111718671D01*
X167851480Y-111740849D01*
X167838867Y-111761893D01*
X167824253Y-111781598D01*
X167807777Y-111799777D01*
X167789598Y-111816253D01*
X167769893Y-111830867D01*
X167748849Y-111843480D01*
X167726671Y-111853970D01*
X167703571Y-111862235D01*
X167679773Y-111868196D01*
X167655504Y-111871796D01*
X167631000Y-111873000D01*
X166706000Y-111873000D01*
X166681496Y-111871796D01*
X166657227Y-111868196D01*
X166633429Y-111862235D01*
X166610329Y-111853970D01*
X166588151Y-111843480D01*
X166567107Y-111830867D01*
X166547402Y-111816253D01*
X166529223Y-111799777D01*
X166512747Y-111781598D01*
X166498133Y-111761893D01*
X166485520Y-111740849D01*
X166475030Y-111718671D01*
X166466765Y-111695571D01*
X166460804Y-111671773D01*
X166457204Y-111647504D01*
X166456000Y-111623000D01*
X166456000Y-110373000D01*
X166457204Y-110348496D01*
X166460804Y-110324227D01*
X166466765Y-110300429D01*
X166475030Y-110277329D01*
X166485520Y-110255151D01*
X166498133Y-110234107D01*
X166512747Y-110214402D01*
X166529223Y-110196223D01*
X166547402Y-110179747D01*
X166567107Y-110165133D01*
X166588151Y-110152520D01*
X166610329Y-110142030D01*
X166633429Y-110133765D01*
X166657227Y-110127804D01*
X166681496Y-110124204D01*
X166706000Y-110123000D01*
X167631000Y-110123000D01*
X167655504Y-110124204D01*
X167655504Y-110124204D01*
G37*
D15*
X167168500Y-110998000D03*
D14*
G36*
X202325504Y-118632204D02*
G01*
X202349773Y-118635804D01*
X202373571Y-118641765D01*
X202396671Y-118650030D01*
X202418849Y-118660520D01*
X202439893Y-118673133D01*
X202459598Y-118687747D01*
X202477777Y-118704223D01*
X202494253Y-118722402D01*
X202508867Y-118742107D01*
X202521480Y-118763151D01*
X202531970Y-118785329D01*
X202540235Y-118808429D01*
X202546196Y-118832227D01*
X202549796Y-118856496D01*
X202551000Y-118881000D01*
X202551000Y-119806000D01*
X202549796Y-119830504D01*
X202546196Y-119854773D01*
X202540235Y-119878571D01*
X202531970Y-119901671D01*
X202521480Y-119923849D01*
X202508867Y-119944893D01*
X202494253Y-119964598D01*
X202477777Y-119982777D01*
X202459598Y-119999253D01*
X202439893Y-120013867D01*
X202418849Y-120026480D01*
X202396671Y-120036970D01*
X202373571Y-120045235D01*
X202349773Y-120051196D01*
X202325504Y-120054796D01*
X202301000Y-120056000D01*
X201051000Y-120056000D01*
X201026496Y-120054796D01*
X201002227Y-120051196D01*
X200978429Y-120045235D01*
X200955329Y-120036970D01*
X200933151Y-120026480D01*
X200912107Y-120013867D01*
X200892402Y-119999253D01*
X200874223Y-119982777D01*
X200857747Y-119964598D01*
X200843133Y-119944893D01*
X200830520Y-119923849D01*
X200820030Y-119901671D01*
X200811765Y-119878571D01*
X200805804Y-119854773D01*
X200802204Y-119830504D01*
X200801000Y-119806000D01*
X200801000Y-118881000D01*
X200802204Y-118856496D01*
X200805804Y-118832227D01*
X200811765Y-118808429D01*
X200820030Y-118785329D01*
X200830520Y-118763151D01*
X200843133Y-118742107D01*
X200857747Y-118722402D01*
X200874223Y-118704223D01*
X200892402Y-118687747D01*
X200912107Y-118673133D01*
X200933151Y-118660520D01*
X200955329Y-118650030D01*
X200978429Y-118641765D01*
X201002227Y-118635804D01*
X201026496Y-118632204D01*
X201051000Y-118631000D01*
X202301000Y-118631000D01*
X202325504Y-118632204D01*
X202325504Y-118632204D01*
G37*
D15*
X201676000Y-119343500D03*
D14*
G36*
X202325504Y-115657204D02*
G01*
X202349773Y-115660804D01*
X202373571Y-115666765D01*
X202396671Y-115675030D01*
X202418849Y-115685520D01*
X202439893Y-115698133D01*
X202459598Y-115712747D01*
X202477777Y-115729223D01*
X202494253Y-115747402D01*
X202508867Y-115767107D01*
X202521480Y-115788151D01*
X202531970Y-115810329D01*
X202540235Y-115833429D01*
X202546196Y-115857227D01*
X202549796Y-115881496D01*
X202551000Y-115906000D01*
X202551000Y-116831000D01*
X202549796Y-116855504D01*
X202546196Y-116879773D01*
X202540235Y-116903571D01*
X202531970Y-116926671D01*
X202521480Y-116948849D01*
X202508867Y-116969893D01*
X202494253Y-116989598D01*
X202477777Y-117007777D01*
X202459598Y-117024253D01*
X202439893Y-117038867D01*
X202418849Y-117051480D01*
X202396671Y-117061970D01*
X202373571Y-117070235D01*
X202349773Y-117076196D01*
X202325504Y-117079796D01*
X202301000Y-117081000D01*
X201051000Y-117081000D01*
X201026496Y-117079796D01*
X201002227Y-117076196D01*
X200978429Y-117070235D01*
X200955329Y-117061970D01*
X200933151Y-117051480D01*
X200912107Y-117038867D01*
X200892402Y-117024253D01*
X200874223Y-117007777D01*
X200857747Y-116989598D01*
X200843133Y-116969893D01*
X200830520Y-116948849D01*
X200820030Y-116926671D01*
X200811765Y-116903571D01*
X200805804Y-116879773D01*
X200802204Y-116855504D01*
X200801000Y-116831000D01*
X200801000Y-115906000D01*
X200802204Y-115881496D01*
X200805804Y-115857227D01*
X200811765Y-115833429D01*
X200820030Y-115810329D01*
X200830520Y-115788151D01*
X200843133Y-115767107D01*
X200857747Y-115747402D01*
X200874223Y-115729223D01*
X200892402Y-115712747D01*
X200912107Y-115698133D01*
X200933151Y-115685520D01*
X200955329Y-115675030D01*
X200978429Y-115666765D01*
X201002227Y-115660804D01*
X201026496Y-115657204D01*
X201051000Y-115656000D01*
X202301000Y-115656000D01*
X202325504Y-115657204D01*
X202325504Y-115657204D01*
G37*
D15*
X201676000Y-116368500D03*
D16*
X196896445Y-88646000D03*
X199719360Y-91186000D03*
X202692000Y-92456000D03*
X206276915Y-92456000D03*
X209220641Y-91186000D03*
X212090000Y-88646000D03*
X164384445Y-88392000D03*
X167207360Y-90932000D03*
X170180000Y-92202000D03*
X173764915Y-92202000D03*
X176708641Y-90932000D03*
X179578000Y-88392000D03*
D17*
X161798000Y-100782000D03*
X164338000Y-100782000D03*
X166878000Y-100782000D03*
X169418000Y-100782000D03*
X171958000Y-100782000D03*
X174498000Y-100782000D03*
X177038000Y-100782000D03*
X179578000Y-100782000D03*
X182118000Y-100782000D03*
X182118000Y-108514000D03*
X179578000Y-108514000D03*
X177038000Y-108514000D03*
X174498000Y-108514000D03*
X171958000Y-108514000D03*
X169418000Y-108514000D03*
X166878000Y-108514000D03*
X164338000Y-108514000D03*
D18*
X161798000Y-108514000D03*
X194310000Y-108514000D03*
D17*
X196850000Y-108514000D03*
X199390000Y-108514000D03*
X201930000Y-108514000D03*
X204470000Y-108514000D03*
X207010000Y-108514000D03*
X209550000Y-108514000D03*
X212090000Y-108514000D03*
X214630000Y-108514000D03*
X214630000Y-100782000D03*
X212090000Y-100782000D03*
X209550000Y-100782000D03*
X207010000Y-100782000D03*
X204470000Y-100782000D03*
X201930000Y-100782000D03*
X199390000Y-100782000D03*
X196850000Y-100782000D03*
X194310000Y-100782000D03*
M02*
