G04 #@! TF.GenerationSoftware,KiCad,Pcbnew,(5.1.4)-1*
G04 #@! TF.CreationDate,2020-02-10T21:36:07-05:00*
G04 #@! TF.ProjectId,xmas,786d6173-2e6b-4696-9361-645f70636258,rev?*
G04 #@! TF.SameCoordinates,Original*
G04 #@! TF.FileFunction,Copper,L1,Top*
G04 #@! TF.FilePolarity,Positive*
%FSLAX46Y46*%
G04 Gerber Fmt 4.6, Leading zero omitted, Abs format (unit mm)*
G04 Created by KiCad (PCBNEW (5.1.4)-1) date 2020-02-10 21:36:07*
%MOMM*%
%LPD*%
G04 APERTURE LIST*
%ADD10C,1.524000*%
%ADD11R,1.500000X1.000000*%
%ADD12C,1.800000*%
%ADD13C,2.000000*%
%ADD14R,2.000000X2.000000*%
%ADD15C,0.100000*%
%ADD16C,1.425000*%
%ADD17O,1.900000X3.500000*%
%ADD18C,1.133000*%
%ADD19R,1.133000X1.133000*%
%ADD20R,0.650000X1.525000*%
%ADD21C,0.800000*%
%ADD22C,0.250000*%
%ADD23C,0.300000*%
G04 APERTURE END LIST*
D10*
X153162000Y-85852000D03*
X137414000Y-85852000D03*
X153162000Y-57404000D03*
X137414000Y-57404000D03*
D11*
X235114000Y-50368000D03*
X235114000Y-47168000D03*
X230214000Y-50368000D03*
X230214000Y-47168000D03*
D12*
X219710000Y-64516000D03*
X219710000Y-67056000D03*
X219710000Y-69596000D03*
X219710000Y-72136000D03*
X219710000Y-74676000D03*
X219710000Y-77216000D03*
X219710000Y-79756000D03*
X219710000Y-82296000D03*
X242570000Y-82296000D03*
X242570000Y-79756000D03*
X242570000Y-77216000D03*
X242570000Y-74676000D03*
X242570000Y-72136000D03*
X242570000Y-69596000D03*
X242570000Y-67056000D03*
X242570000Y-64516000D03*
D13*
X154432000Y-102108000D03*
X151892000Y-102108000D03*
D14*
X149352000Y-102108000D03*
D15*
G36*
X152342504Y-111902204D02*
G01*
X152366773Y-111905804D01*
X152390571Y-111911765D01*
X152413671Y-111920030D01*
X152435849Y-111930520D01*
X152456893Y-111943133D01*
X152476598Y-111957747D01*
X152494777Y-111974223D01*
X152511253Y-111992402D01*
X152525867Y-112012107D01*
X152538480Y-112033151D01*
X152548970Y-112055329D01*
X152557235Y-112078429D01*
X152563196Y-112102227D01*
X152566796Y-112126496D01*
X152568000Y-112151000D01*
X152568000Y-113401000D01*
X152566796Y-113425504D01*
X152563196Y-113449773D01*
X152557235Y-113473571D01*
X152548970Y-113496671D01*
X152538480Y-113518849D01*
X152525867Y-113539893D01*
X152511253Y-113559598D01*
X152494777Y-113577777D01*
X152476598Y-113594253D01*
X152456893Y-113608867D01*
X152435849Y-113621480D01*
X152413671Y-113631970D01*
X152390571Y-113640235D01*
X152366773Y-113646196D01*
X152342504Y-113649796D01*
X152318000Y-113651000D01*
X151393000Y-113651000D01*
X151368496Y-113649796D01*
X151344227Y-113646196D01*
X151320429Y-113640235D01*
X151297329Y-113631970D01*
X151275151Y-113621480D01*
X151254107Y-113608867D01*
X151234402Y-113594253D01*
X151216223Y-113577777D01*
X151199747Y-113559598D01*
X151185133Y-113539893D01*
X151172520Y-113518849D01*
X151162030Y-113496671D01*
X151153765Y-113473571D01*
X151147804Y-113449773D01*
X151144204Y-113425504D01*
X151143000Y-113401000D01*
X151143000Y-112151000D01*
X151144204Y-112126496D01*
X151147804Y-112102227D01*
X151153765Y-112078429D01*
X151162030Y-112055329D01*
X151172520Y-112033151D01*
X151185133Y-112012107D01*
X151199747Y-111992402D01*
X151216223Y-111974223D01*
X151234402Y-111957747D01*
X151254107Y-111943133D01*
X151275151Y-111930520D01*
X151297329Y-111920030D01*
X151320429Y-111911765D01*
X151344227Y-111905804D01*
X151368496Y-111902204D01*
X151393000Y-111901000D01*
X152318000Y-111901000D01*
X152342504Y-111902204D01*
X152342504Y-111902204D01*
G37*
D16*
X151855500Y-112776000D03*
D15*
G36*
X149367504Y-111902204D02*
G01*
X149391773Y-111905804D01*
X149415571Y-111911765D01*
X149438671Y-111920030D01*
X149460849Y-111930520D01*
X149481893Y-111943133D01*
X149501598Y-111957747D01*
X149519777Y-111974223D01*
X149536253Y-111992402D01*
X149550867Y-112012107D01*
X149563480Y-112033151D01*
X149573970Y-112055329D01*
X149582235Y-112078429D01*
X149588196Y-112102227D01*
X149591796Y-112126496D01*
X149593000Y-112151000D01*
X149593000Y-113401000D01*
X149591796Y-113425504D01*
X149588196Y-113449773D01*
X149582235Y-113473571D01*
X149573970Y-113496671D01*
X149563480Y-113518849D01*
X149550867Y-113539893D01*
X149536253Y-113559598D01*
X149519777Y-113577777D01*
X149501598Y-113594253D01*
X149481893Y-113608867D01*
X149460849Y-113621480D01*
X149438671Y-113631970D01*
X149415571Y-113640235D01*
X149391773Y-113646196D01*
X149367504Y-113649796D01*
X149343000Y-113651000D01*
X148418000Y-113651000D01*
X148393496Y-113649796D01*
X148369227Y-113646196D01*
X148345429Y-113640235D01*
X148322329Y-113631970D01*
X148300151Y-113621480D01*
X148279107Y-113608867D01*
X148259402Y-113594253D01*
X148241223Y-113577777D01*
X148224747Y-113559598D01*
X148210133Y-113539893D01*
X148197520Y-113518849D01*
X148187030Y-113496671D01*
X148178765Y-113473571D01*
X148172804Y-113449773D01*
X148169204Y-113425504D01*
X148168000Y-113401000D01*
X148168000Y-112151000D01*
X148169204Y-112126496D01*
X148172804Y-112102227D01*
X148178765Y-112078429D01*
X148187030Y-112055329D01*
X148197520Y-112033151D01*
X148210133Y-112012107D01*
X148224747Y-111992402D01*
X148241223Y-111974223D01*
X148259402Y-111957747D01*
X148279107Y-111943133D01*
X148300151Y-111930520D01*
X148322329Y-111920030D01*
X148345429Y-111911765D01*
X148369227Y-111905804D01*
X148393496Y-111902204D01*
X148418000Y-111901000D01*
X149343000Y-111901000D01*
X149367504Y-111902204D01*
X149367504Y-111902204D01*
G37*
D16*
X148880500Y-112776000D03*
D15*
G36*
X149367504Y-107330204D02*
G01*
X149391773Y-107333804D01*
X149415571Y-107339765D01*
X149438671Y-107348030D01*
X149460849Y-107358520D01*
X149481893Y-107371133D01*
X149501598Y-107385747D01*
X149519777Y-107402223D01*
X149536253Y-107420402D01*
X149550867Y-107440107D01*
X149563480Y-107461151D01*
X149573970Y-107483329D01*
X149582235Y-107506429D01*
X149588196Y-107530227D01*
X149591796Y-107554496D01*
X149593000Y-107579000D01*
X149593000Y-108829000D01*
X149591796Y-108853504D01*
X149588196Y-108877773D01*
X149582235Y-108901571D01*
X149573970Y-108924671D01*
X149563480Y-108946849D01*
X149550867Y-108967893D01*
X149536253Y-108987598D01*
X149519777Y-109005777D01*
X149501598Y-109022253D01*
X149481893Y-109036867D01*
X149460849Y-109049480D01*
X149438671Y-109059970D01*
X149415571Y-109068235D01*
X149391773Y-109074196D01*
X149367504Y-109077796D01*
X149343000Y-109079000D01*
X148418000Y-109079000D01*
X148393496Y-109077796D01*
X148369227Y-109074196D01*
X148345429Y-109068235D01*
X148322329Y-109059970D01*
X148300151Y-109049480D01*
X148279107Y-109036867D01*
X148259402Y-109022253D01*
X148241223Y-109005777D01*
X148224747Y-108987598D01*
X148210133Y-108967893D01*
X148197520Y-108946849D01*
X148187030Y-108924671D01*
X148178765Y-108901571D01*
X148172804Y-108877773D01*
X148169204Y-108853504D01*
X148168000Y-108829000D01*
X148168000Y-107579000D01*
X148169204Y-107554496D01*
X148172804Y-107530227D01*
X148178765Y-107506429D01*
X148187030Y-107483329D01*
X148197520Y-107461151D01*
X148210133Y-107440107D01*
X148224747Y-107420402D01*
X148241223Y-107402223D01*
X148259402Y-107385747D01*
X148279107Y-107371133D01*
X148300151Y-107358520D01*
X148322329Y-107348030D01*
X148345429Y-107339765D01*
X148369227Y-107333804D01*
X148393496Y-107330204D01*
X148418000Y-107329000D01*
X149343000Y-107329000D01*
X149367504Y-107330204D01*
X149367504Y-107330204D01*
G37*
D16*
X148880500Y-108204000D03*
D15*
G36*
X152342504Y-107330204D02*
G01*
X152366773Y-107333804D01*
X152390571Y-107339765D01*
X152413671Y-107348030D01*
X152435849Y-107358520D01*
X152456893Y-107371133D01*
X152476598Y-107385747D01*
X152494777Y-107402223D01*
X152511253Y-107420402D01*
X152525867Y-107440107D01*
X152538480Y-107461151D01*
X152548970Y-107483329D01*
X152557235Y-107506429D01*
X152563196Y-107530227D01*
X152566796Y-107554496D01*
X152568000Y-107579000D01*
X152568000Y-108829000D01*
X152566796Y-108853504D01*
X152563196Y-108877773D01*
X152557235Y-108901571D01*
X152548970Y-108924671D01*
X152538480Y-108946849D01*
X152525867Y-108967893D01*
X152511253Y-108987598D01*
X152494777Y-109005777D01*
X152476598Y-109022253D01*
X152456893Y-109036867D01*
X152435849Y-109049480D01*
X152413671Y-109059970D01*
X152390571Y-109068235D01*
X152366773Y-109074196D01*
X152342504Y-109077796D01*
X152318000Y-109079000D01*
X151393000Y-109079000D01*
X151368496Y-109077796D01*
X151344227Y-109074196D01*
X151320429Y-109068235D01*
X151297329Y-109059970D01*
X151275151Y-109049480D01*
X151254107Y-109036867D01*
X151234402Y-109022253D01*
X151216223Y-109005777D01*
X151199747Y-108987598D01*
X151185133Y-108967893D01*
X151172520Y-108946849D01*
X151162030Y-108924671D01*
X151153765Y-108901571D01*
X151147804Y-108877773D01*
X151144204Y-108853504D01*
X151143000Y-108829000D01*
X151143000Y-107579000D01*
X151144204Y-107554496D01*
X151147804Y-107530227D01*
X151153765Y-107506429D01*
X151162030Y-107483329D01*
X151172520Y-107461151D01*
X151185133Y-107440107D01*
X151199747Y-107420402D01*
X151216223Y-107402223D01*
X151234402Y-107385747D01*
X151254107Y-107371133D01*
X151275151Y-107358520D01*
X151297329Y-107348030D01*
X151320429Y-107339765D01*
X151344227Y-107333804D01*
X151368496Y-107330204D01*
X151393000Y-107329000D01*
X152318000Y-107329000D01*
X152342504Y-107330204D01*
X152342504Y-107330204D01*
G37*
D16*
X151855500Y-108204000D03*
D11*
X232754000Y-100000000D03*
X232754000Y-103200000D03*
X237654000Y-100000000D03*
X237654000Y-103200000D03*
X190918000Y-133172000D03*
X190918000Y-129972000D03*
X186018000Y-133172000D03*
X186018000Y-129972000D03*
X137250000Y-100000000D03*
X137250000Y-103200000D03*
X142150000Y-100000000D03*
X142150000Y-103200000D03*
X139790000Y-46660000D03*
X139790000Y-49860000D03*
X144690000Y-46660000D03*
X144690000Y-49860000D03*
X186018000Y-19228000D03*
X186018000Y-22428000D03*
X190918000Y-19228000D03*
X190918000Y-22428000D03*
D15*
G36*
X189117504Y-111085204D02*
G01*
X189141773Y-111088804D01*
X189165571Y-111094765D01*
X189188671Y-111103030D01*
X189210849Y-111113520D01*
X189231893Y-111126133D01*
X189251598Y-111140747D01*
X189269777Y-111157223D01*
X189286253Y-111175402D01*
X189300867Y-111195107D01*
X189313480Y-111216151D01*
X189323970Y-111238329D01*
X189332235Y-111261429D01*
X189338196Y-111285227D01*
X189341796Y-111309496D01*
X189343000Y-111334000D01*
X189343000Y-112259000D01*
X189341796Y-112283504D01*
X189338196Y-112307773D01*
X189332235Y-112331571D01*
X189323970Y-112354671D01*
X189313480Y-112376849D01*
X189300867Y-112397893D01*
X189286253Y-112417598D01*
X189269777Y-112435777D01*
X189251598Y-112452253D01*
X189231893Y-112466867D01*
X189210849Y-112479480D01*
X189188671Y-112489970D01*
X189165571Y-112498235D01*
X189141773Y-112504196D01*
X189117504Y-112507796D01*
X189093000Y-112509000D01*
X187843000Y-112509000D01*
X187818496Y-112507796D01*
X187794227Y-112504196D01*
X187770429Y-112498235D01*
X187747329Y-112489970D01*
X187725151Y-112479480D01*
X187704107Y-112466867D01*
X187684402Y-112452253D01*
X187666223Y-112435777D01*
X187649747Y-112417598D01*
X187635133Y-112397893D01*
X187622520Y-112376849D01*
X187612030Y-112354671D01*
X187603765Y-112331571D01*
X187597804Y-112307773D01*
X187594204Y-112283504D01*
X187593000Y-112259000D01*
X187593000Y-111334000D01*
X187594204Y-111309496D01*
X187597804Y-111285227D01*
X187603765Y-111261429D01*
X187612030Y-111238329D01*
X187622520Y-111216151D01*
X187635133Y-111195107D01*
X187649747Y-111175402D01*
X187666223Y-111157223D01*
X187684402Y-111140747D01*
X187704107Y-111126133D01*
X187725151Y-111113520D01*
X187747329Y-111103030D01*
X187770429Y-111094765D01*
X187794227Y-111088804D01*
X187818496Y-111085204D01*
X187843000Y-111084000D01*
X189093000Y-111084000D01*
X189117504Y-111085204D01*
X189117504Y-111085204D01*
G37*
D16*
X188468000Y-111796500D03*
D15*
G36*
X189117504Y-114060204D02*
G01*
X189141773Y-114063804D01*
X189165571Y-114069765D01*
X189188671Y-114078030D01*
X189210849Y-114088520D01*
X189231893Y-114101133D01*
X189251598Y-114115747D01*
X189269777Y-114132223D01*
X189286253Y-114150402D01*
X189300867Y-114170107D01*
X189313480Y-114191151D01*
X189323970Y-114213329D01*
X189332235Y-114236429D01*
X189338196Y-114260227D01*
X189341796Y-114284496D01*
X189343000Y-114309000D01*
X189343000Y-115234000D01*
X189341796Y-115258504D01*
X189338196Y-115282773D01*
X189332235Y-115306571D01*
X189323970Y-115329671D01*
X189313480Y-115351849D01*
X189300867Y-115372893D01*
X189286253Y-115392598D01*
X189269777Y-115410777D01*
X189251598Y-115427253D01*
X189231893Y-115441867D01*
X189210849Y-115454480D01*
X189188671Y-115464970D01*
X189165571Y-115473235D01*
X189141773Y-115479196D01*
X189117504Y-115482796D01*
X189093000Y-115484000D01*
X187843000Y-115484000D01*
X187818496Y-115482796D01*
X187794227Y-115479196D01*
X187770429Y-115473235D01*
X187747329Y-115464970D01*
X187725151Y-115454480D01*
X187704107Y-115441867D01*
X187684402Y-115427253D01*
X187666223Y-115410777D01*
X187649747Y-115392598D01*
X187635133Y-115372893D01*
X187622520Y-115351849D01*
X187612030Y-115329671D01*
X187603765Y-115306571D01*
X187597804Y-115282773D01*
X187594204Y-115258504D01*
X187593000Y-115234000D01*
X187593000Y-114309000D01*
X187594204Y-114284496D01*
X187597804Y-114260227D01*
X187603765Y-114236429D01*
X187612030Y-114213329D01*
X187622520Y-114191151D01*
X187635133Y-114170107D01*
X187649747Y-114150402D01*
X187666223Y-114132223D01*
X187684402Y-114115747D01*
X187704107Y-114101133D01*
X187725151Y-114088520D01*
X187747329Y-114078030D01*
X187770429Y-114069765D01*
X187794227Y-114063804D01*
X187818496Y-114060204D01*
X187843000Y-114059000D01*
X189093000Y-114059000D01*
X189117504Y-114060204D01*
X189117504Y-114060204D01*
G37*
D16*
X188468000Y-114771500D03*
D17*
X199719359Y-91186000D03*
X196896445Y-88646000D03*
X212090000Y-88646000D03*
X209220640Y-91186000D03*
X206248000Y-92456000D03*
X167207359Y-90932000D03*
X164384445Y-88392000D03*
X179578000Y-88392000D03*
X176708640Y-90932000D03*
X173736000Y-92202000D03*
D18*
X161798000Y-100782000D03*
X164338000Y-100782000D03*
X166878000Y-100782000D03*
X169418000Y-100782000D03*
X171958000Y-100782000D03*
X174498000Y-100782000D03*
X177038000Y-100782000D03*
X179578000Y-100782000D03*
X182118000Y-100782000D03*
X182118000Y-108514000D03*
X179578000Y-108514000D03*
X177038000Y-108514000D03*
X174498000Y-108514000D03*
X171958000Y-108514000D03*
X169418000Y-108514000D03*
X166878000Y-108514000D03*
X164338000Y-108514000D03*
D19*
X161798000Y-108514000D03*
D20*
X167513000Y-118790000D03*
X168783000Y-118790000D03*
X170053000Y-118790000D03*
X171323000Y-118790000D03*
X172593000Y-118790000D03*
X173863000Y-118790000D03*
X175133000Y-118790000D03*
X176403000Y-118790000D03*
X176403000Y-113366000D03*
X175133000Y-113366000D03*
X173863000Y-113366000D03*
X172593000Y-113366000D03*
X171323000Y-113366000D03*
X170053000Y-113366000D03*
X168783000Y-113366000D03*
X167513000Y-113366000D03*
X200025000Y-113366000D03*
X201295000Y-113366000D03*
X202565000Y-113366000D03*
X203835000Y-113366000D03*
X205105000Y-113366000D03*
X206375000Y-113366000D03*
X207645000Y-113366000D03*
X208915000Y-113366000D03*
X208915000Y-118790000D03*
X207645000Y-118790000D03*
X206375000Y-118790000D03*
X205105000Y-118790000D03*
X203835000Y-118790000D03*
X202565000Y-118790000D03*
X201295000Y-118790000D03*
X200025000Y-118790000D03*
D19*
X194310000Y-108514000D03*
D18*
X196850000Y-108514000D03*
X199390000Y-108514000D03*
X201930000Y-108514000D03*
X204470000Y-108514000D03*
X207010000Y-108514000D03*
X209550000Y-108514000D03*
X212090000Y-108514000D03*
X214630000Y-108514000D03*
X214630000Y-100782000D03*
X212090000Y-100782000D03*
X209550000Y-100782000D03*
X207010000Y-100782000D03*
X204470000Y-100782000D03*
X201930000Y-100782000D03*
X199390000Y-100782000D03*
X196850000Y-100782000D03*
X194310000Y-100782000D03*
D21*
X164338000Y-104140000D03*
X206248000Y-88392000D03*
X176530000Y-120904000D03*
X209042000Y-120396000D03*
X168910000Y-111506000D03*
X239268000Y-103124000D03*
X228600000Y-47244000D03*
X191008000Y-24384000D03*
X144780000Y-51816000D03*
X151892000Y-110744000D03*
X186436000Y-128016000D03*
X142240000Y-105156000D03*
X205740000Y-110236000D03*
X177282805Y-97545195D03*
X173736000Y-96012000D03*
X175514000Y-116586000D03*
X174244000Y-116586000D03*
X172720000Y-116586000D03*
X170434000Y-115824000D03*
X166116000Y-114808000D03*
X184658000Y-113030000D03*
X202438000Y-115062000D03*
X199390000Y-110998000D03*
X208030653Y-116336653D03*
X207010000Y-116332000D03*
X205486000Y-116332000D03*
X203962000Y-116332000D03*
X196850000Y-103632000D03*
X221488000Y-110744000D03*
X215392000Y-110744000D03*
X195580000Y-115824000D03*
X200660000Y-122428000D03*
X215392000Y-111760000D03*
X221488000Y-111760000D03*
X168910000Y-115824000D03*
X171486999Y-121629001D03*
X177419000Y-86487000D03*
X157480000Y-87884000D03*
X198628000Y-111760000D03*
X185420000Y-112014000D03*
X166116000Y-112522000D03*
X200406000Y-115787000D03*
X219456000Y-106172000D03*
X237236000Y-110236000D03*
X222283772Y-125210596D03*
D22*
X164338000Y-104140000D02*
X164338000Y-100528000D01*
X179578000Y-93726000D02*
X179578000Y-88392000D01*
X175006000Y-98298000D02*
X179578000Y-93726000D01*
X171704000Y-98298000D02*
X175006000Y-98298000D01*
X167444499Y-101094499D02*
X167444499Y-101150499D01*
X166878000Y-100528000D02*
X167444499Y-101094499D01*
X167444499Y-101150499D02*
X168656000Y-102362000D01*
X170688000Y-99314000D02*
X171704000Y-98298000D01*
X168656000Y-102362000D02*
X169672000Y-102362000D01*
X169672000Y-102362000D02*
X170688000Y-101346000D01*
X170688000Y-101346000D02*
X170688000Y-99314000D01*
X169418000Y-100528000D02*
X169418000Y-99314000D01*
X169418000Y-99314000D02*
X164338000Y-94234000D01*
X164384445Y-94187555D02*
X164384445Y-88392000D01*
X164338000Y-94234000D02*
X164384445Y-94187555D01*
X206248000Y-92456000D02*
X206248000Y-88392000D01*
X176403000Y-119802500D02*
X176530000Y-119929500D01*
X176403000Y-118790000D02*
X176403000Y-119802500D01*
X176530000Y-119929500D02*
X176530000Y-120904000D01*
X208915000Y-119802500D02*
X209042000Y-119929500D01*
X208915000Y-118790000D02*
X208915000Y-119802500D01*
X209042000Y-119929500D02*
X209042000Y-120396000D01*
X203835000Y-113366000D02*
X203835000Y-112353500D01*
X171323000Y-112141000D02*
X171323000Y-113366000D01*
X170688000Y-111506000D02*
X171196000Y-112014000D01*
X168910000Y-111506000D02*
X170688000Y-111506000D01*
X170942000Y-111760000D02*
X171196000Y-112014000D01*
X171196000Y-112014000D02*
X171323000Y-112141000D01*
X237654000Y-103200000D02*
X239192000Y-103200000D01*
X239192000Y-103200000D02*
X239268000Y-103124000D01*
X230214000Y-47168000D02*
X228676000Y-47168000D01*
X228676000Y-47168000D02*
X228600000Y-47244000D01*
X190918000Y-22428000D02*
X190918000Y-24294000D01*
X190918000Y-24294000D02*
X191008000Y-24384000D01*
X144690000Y-49860000D02*
X144690000Y-51726000D01*
X144690000Y-51726000D02*
X144780000Y-51816000D01*
X142150000Y-103950000D02*
X142240000Y-104040000D01*
X142150000Y-103200000D02*
X142150000Y-103950000D01*
X142240000Y-104040000D02*
X142240000Y-105156000D01*
X151855500Y-112776000D02*
X151855500Y-110780500D01*
X151855500Y-110780500D02*
X151892000Y-110744000D01*
X186018000Y-129972000D02*
X186018000Y-128434000D01*
X186018000Y-128434000D02*
X186436000Y-128016000D01*
X203835000Y-112353500D02*
X203835000Y-112141000D01*
X203835000Y-112141000D02*
X205740000Y-110236000D01*
X182118000Y-100782000D02*
X178872000Y-97536000D01*
X178872000Y-97536000D02*
X177292000Y-97536000D01*
X177292000Y-97536000D02*
X177282805Y-97545195D01*
X173736000Y-96012000D02*
X173736000Y-92202000D01*
X175133000Y-118790000D02*
X175133000Y-116967000D01*
X175133000Y-116967000D02*
X175514000Y-116586000D01*
X173863000Y-118790000D02*
X173863000Y-116967000D01*
X173863000Y-116967000D02*
X174244000Y-116586000D01*
X172593000Y-118790000D02*
X172593000Y-116713000D01*
X172593000Y-116713000D02*
X172720000Y-116586000D01*
X171323000Y-118790000D02*
X171323000Y-116713000D01*
X171323000Y-116713000D02*
X171196000Y-116586000D01*
X171196000Y-116586000D02*
X170434000Y-115824000D01*
X170053000Y-118352500D02*
X170053000Y-118790000D01*
X170053000Y-118790000D02*
X170053000Y-118237000D01*
X166116000Y-109728000D02*
X167950000Y-109728000D01*
X170053000Y-117475000D02*
X169475990Y-116897990D01*
X170053000Y-118790000D02*
X170053000Y-117475000D01*
X169475990Y-116897990D02*
X166318810Y-116897990D01*
X166318810Y-116897990D02*
X165296010Y-115875190D01*
X165296010Y-115875190D02*
X165296010Y-110547990D01*
X167950000Y-109728000D02*
X169418000Y-108260000D01*
X165296010Y-110547990D02*
X166116000Y-109728000D01*
X168783000Y-118352500D02*
X168783000Y-118790000D01*
X168783000Y-117729000D02*
X168783000Y-118790000D01*
X168402000Y-117348000D02*
X168783000Y-117729000D01*
X166132410Y-117348000D02*
X168402000Y-117348000D01*
X164846000Y-116061590D02*
X166132410Y-117348000D01*
X166878000Y-108260000D02*
X164846000Y-110292000D01*
X164846000Y-110292000D02*
X164846000Y-116061590D01*
X166938000Y-118790000D02*
X167513000Y-118790000D01*
X164338000Y-108260000D02*
X164338000Y-116190000D01*
X164338000Y-116190000D02*
X166938000Y-118790000D01*
X168783000Y-113366000D02*
X168783000Y-112928500D01*
X168783000Y-113366000D02*
X168783000Y-114681000D01*
X168783000Y-114681000D02*
X168656000Y-114808000D01*
X168656000Y-114808000D02*
X166116000Y-114808000D01*
X176403000Y-112928500D02*
X177121490Y-112210010D01*
X176403000Y-113366000D02*
X176403000Y-112928500D01*
X177121490Y-112210010D02*
X183838010Y-112210010D01*
X183838010Y-112210010D02*
X184658000Y-113030000D01*
X202438000Y-113493000D02*
X202565000Y-113366000D01*
X202438000Y-115062000D02*
X202438000Y-113493000D01*
X199390000Y-111023500D02*
X199390000Y-110998000D01*
X201295000Y-113366000D02*
X201295000Y-112928500D01*
X201295000Y-112928500D02*
X199390000Y-111023500D01*
X207645000Y-118790000D02*
X207645000Y-116722306D01*
X207645000Y-116722306D02*
X208030653Y-116336653D01*
X206375000Y-118790000D02*
X206375000Y-116967000D01*
X206375000Y-116967000D02*
X207010000Y-116332000D01*
X205105000Y-118790000D02*
X205105000Y-116713000D01*
X205105000Y-116713000D02*
X205486000Y-116332000D01*
X203835000Y-118790000D02*
X203835000Y-117221000D01*
X203835000Y-117221000D02*
X203835000Y-116459000D01*
X203835000Y-116459000D02*
X203962000Y-116332000D01*
X202565000Y-118790000D02*
X202565000Y-118352500D01*
X200716000Y-109728000D02*
X201930000Y-108514000D01*
X198812410Y-109728000D02*
X199644000Y-109728000D01*
X197808010Y-110732400D02*
X198812410Y-109728000D01*
X197808010Y-114229100D02*
X197808010Y-110732400D01*
X199644000Y-109728000D02*
X200716000Y-109728000D01*
X199390000Y-109728000D02*
X199644000Y-109728000D01*
X202565000Y-118790000D02*
X202565000Y-117729000D01*
X202184000Y-117348000D02*
X200926910Y-117348000D01*
X202565000Y-117729000D02*
X202184000Y-117348000D01*
X200926910Y-117348000D02*
X197808010Y-114229100D01*
X201295000Y-118352500D02*
X197358000Y-114415500D01*
X201295000Y-118790000D02*
X201295000Y-118352500D01*
X197358000Y-110546000D02*
X199390000Y-108514000D01*
X197358000Y-114415500D02*
X197358000Y-110546000D01*
X196850000Y-109315151D02*
X196850000Y-108514000D01*
X196850000Y-116190000D02*
X196850000Y-109315151D01*
X199450000Y-118790000D02*
X196850000Y-116190000D01*
X200025000Y-118790000D02*
X199450000Y-118790000D01*
X196850000Y-103632000D02*
X196850000Y-100782000D01*
X200970000Y-102362000D02*
X199390000Y-100782000D01*
X212090000Y-93980000D02*
X207264000Y-98806000D01*
X202184000Y-102362000D02*
X200970000Y-102362000D01*
X212090000Y-88646000D02*
X212090000Y-93980000D01*
X207264000Y-98806000D02*
X203962000Y-98806000D01*
X203962000Y-98806000D02*
X203200000Y-99568000D01*
X203200000Y-99568000D02*
X203200000Y-101346000D01*
X203200000Y-101346000D02*
X202184000Y-102362000D01*
X201930000Y-100782000D02*
X201930000Y-99314000D01*
X196896445Y-94280445D02*
X196896445Y-88646000D01*
X201930000Y-99314000D02*
X196896445Y-94280445D01*
X173863000Y-113366000D02*
X173863000Y-113793410D01*
X242570000Y-72136000D02*
X234188000Y-72136000D01*
X234188000Y-72136000D02*
X221488000Y-84836000D01*
X221488000Y-84836000D02*
X221488000Y-110744000D01*
X207984500Y-110744000D02*
X215392000Y-110744000D01*
X206375000Y-112353500D02*
X207984500Y-110744000D01*
X206375000Y-113366000D02*
X206375000Y-112353500D01*
X173863000Y-113803500D02*
X175375500Y-115316000D01*
X173863000Y-113366000D02*
X173863000Y-113803500D01*
X175375500Y-115316000D02*
X185928000Y-115316000D01*
X185928000Y-115316000D02*
X186944000Y-116332000D01*
X186944000Y-116332000D02*
X189992000Y-116332000D01*
X221488000Y-110744000D02*
X217932000Y-110744000D01*
X189992000Y-116332000D02*
X195072000Y-116332000D01*
X195072000Y-116332000D02*
X195580000Y-115824000D01*
X217932000Y-116968410D02*
X217932000Y-110744000D01*
X212472410Y-122428000D02*
X217932000Y-116968410D01*
X200660000Y-122428000D02*
X212472410Y-122428000D01*
X172593000Y-113803500D02*
X172720000Y-113930500D01*
X172593000Y-113366000D02*
X172593000Y-113803500D01*
X232284410Y-74676000D02*
X242570000Y-74676000D01*
X222504000Y-84456410D02*
X232284410Y-74676000D01*
X221488000Y-111760000D02*
X222504000Y-111760000D01*
X222504000Y-111760000D02*
X222504000Y-84456410D01*
X205105000Y-113803500D02*
X205105000Y-113366000D01*
X206617500Y-115316000D02*
X205105000Y-113803500D01*
X215392000Y-111760000D02*
X211836000Y-115316000D01*
X210312000Y-115316000D02*
X206617500Y-115316000D01*
X211836000Y-115316000D02*
X210312000Y-115316000D01*
X172593000Y-113803500D02*
X174105500Y-115316000D01*
X174650499Y-115860999D02*
X172593000Y-113803500D01*
X210312000Y-120199002D02*
X209390001Y-121121001D01*
X210312000Y-115316000D02*
X210312000Y-120199002D01*
X209390001Y-121121001D02*
X200484981Y-121121001D01*
X185836589Y-115860999D02*
X174650499Y-115860999D01*
X200484981Y-121121001D02*
X196145990Y-116782010D01*
X196145990Y-116782010D02*
X186757600Y-116782010D01*
X186757600Y-116782010D02*
X185836589Y-115860999D01*
X170053000Y-113366000D02*
X170053000Y-114681000D01*
X170053000Y-114681000D02*
X168910000Y-115824000D01*
X216916000Y-74930000D02*
X219710000Y-72136000D01*
X216916000Y-117348000D02*
X216916000Y-74930000D01*
X212634999Y-121629001D02*
X216916000Y-117348000D01*
X174969001Y-121629001D02*
X171486999Y-121629001D01*
X174969001Y-121629001D02*
X212634999Y-121629001D01*
X174400503Y-121629001D02*
X174969001Y-121629001D01*
D23*
X215196499Y-107947501D02*
X214630000Y-108514000D01*
X215546501Y-107597499D02*
X215196499Y-107947501D01*
X209220640Y-91186000D02*
X209220640Y-89078640D01*
X209220640Y-89078640D02*
X209220640Y-88876869D01*
X215546501Y-88800501D02*
X215546501Y-89761499D01*
X215546501Y-89464010D02*
X215546501Y-89761499D01*
X209220640Y-89078640D02*
X209220640Y-87959360D01*
X209220640Y-87959360D02*
X211074000Y-86106000D01*
X211074000Y-86106000D02*
X212852000Y-86106000D01*
X212852000Y-86106000D02*
X215546501Y-88800501D01*
X176708640Y-90932000D02*
X176708640Y-88721360D01*
X176708640Y-88721360D02*
X176708640Y-88622869D01*
X176708640Y-88721360D02*
X176708640Y-87197360D01*
X178054000Y-85852000D02*
X180594000Y-85852000D01*
X180594000Y-85852000D02*
X183034501Y-88292501D01*
X177419000Y-86487000D02*
X178054000Y-85852000D01*
X176708640Y-87197360D02*
X177419000Y-86487000D01*
X137414000Y-85852000D02*
X138684000Y-87122000D01*
X139446000Y-87884000D02*
X137414000Y-85852000D01*
X157480000Y-87884000D02*
X139446000Y-87884000D01*
X215546501Y-107033499D02*
X215546501Y-107597499D01*
X215546501Y-89761499D02*
X215546501Y-107033499D01*
X183896000Y-89154000D02*
X180594000Y-85852000D01*
X183896000Y-107033499D02*
X183896000Y-89154000D01*
X183598501Y-107033499D02*
X182118000Y-108514000D01*
X184050501Y-107033499D02*
X183598501Y-107033499D01*
X215546501Y-107033499D02*
X184050501Y-107033499D01*
D22*
X127182580Y-78158482D02*
X127166681Y-77667114D01*
X127202462Y-78649951D02*
X127182580Y-78158482D01*
X127254140Y-79632242D02*
X127226314Y-79141193D01*
X127321692Y-80613492D02*
X127285928Y-80122937D01*
X127361407Y-81103556D02*
X127321692Y-80613492D01*
X127559920Y-83060789D02*
X127504343Y-82571965D01*
X129917236Y-94107149D02*
X129772252Y-93637122D01*
X130065966Y-94575833D02*
X129917236Y-94107149D01*
X129772252Y-93637122D02*
X129631093Y-93166001D01*
X127821601Y-85010373D02*
X127750282Y-84523868D01*
X127226314Y-79141193D02*
X127202462Y-78649951D01*
X130218531Y-95043451D02*
X130065966Y-94575833D01*
X130534898Y-95974668D02*
X130374883Y-95509848D01*
X131212658Y-97821307D02*
X131037683Y-97361875D01*
X130698750Y-96438414D02*
X130534898Y-95974668D01*
X130866301Y-96900696D02*
X130698750Y-96438414D01*
X127682866Y-84036549D02*
X127619417Y-83548889D01*
X127976046Y-85981691D02*
X127896862Y-85496362D01*
X131037683Y-97361875D02*
X130866301Y-96900696D01*
X137250000Y-100000000D02*
X132568560Y-100000000D01*
X130374883Y-95509848D02*
X130218531Y-95043451D01*
X129230575Y-91746145D02*
X129104725Y-91270699D01*
X132568560Y-100000000D02*
X131760011Y-99191451D01*
X129104725Y-91270699D02*
X128982715Y-90794220D01*
X131760011Y-99191451D02*
X131573898Y-98736289D01*
X131573898Y-98736289D02*
X131391414Y-98279495D01*
X127285928Y-80122937D02*
X127254140Y-79632242D01*
X131391414Y-98279495D02*
X131212658Y-97821307D01*
X129631093Y-93166001D02*
X129493773Y-92693840D01*
X129493773Y-92693840D02*
X129360250Y-92220491D01*
X129360250Y-92220491D02*
X129230575Y-91746145D01*
X128982715Y-90794220D02*
X128864578Y-90316830D01*
X128864578Y-90316830D02*
X128750303Y-89838502D01*
X128750303Y-89838502D02*
X128639885Y-89359194D01*
X127619417Y-83548889D02*
X127559920Y-83060789D01*
X128639885Y-89359194D02*
X128533372Y-88879124D01*
X127166681Y-77667114D02*
X127154749Y-77175338D01*
X128533372Y-88879124D02*
X128430727Y-88398129D01*
X128430727Y-88398129D02*
X128331994Y-87916416D01*
X127154749Y-77175338D02*
X127146795Y-76683553D01*
X128331994Y-87916416D02*
X128237137Y-87433798D01*
X127452752Y-82083006D02*
X127405097Y-81593434D01*
X128237137Y-87433798D02*
X128146198Y-86950496D01*
X127405097Y-81593434D02*
X127361407Y-81103556D01*
X128146198Y-86950496D02*
X128059179Y-86466529D01*
X128059179Y-86466529D02*
X127976046Y-85981691D01*
X127504343Y-82571965D02*
X127452752Y-82083006D01*
X127896862Y-85496362D02*
X127821601Y-85010373D01*
X127750282Y-84523868D02*
X127682866Y-84036549D01*
X131760004Y-52700566D02*
X131949859Y-52246761D01*
X131573897Y-53155712D02*
X131760004Y-52700566D01*
X131391416Y-53612500D02*
X131573897Y-53155712D01*
X131212656Y-54070698D02*
X131391416Y-53612500D01*
X131037687Y-54530115D02*
X131212656Y-54070698D01*
X130866302Y-54991301D02*
X131037687Y-54530115D01*
X130698756Y-55453570D02*
X130866302Y-54991301D01*
X130534902Y-55917322D02*
X130698756Y-55453570D01*
X130374885Y-56382149D02*
X130534902Y-55917322D01*
X130218533Y-56848545D02*
X130374885Y-56382149D01*
X130065969Y-57316162D02*
X130218533Y-56848545D01*
X129917235Y-57784855D02*
X130065969Y-57316162D01*
X129772255Y-58254870D02*
X129917235Y-57784855D01*
X127619419Y-68343106D02*
X127682867Y-67855446D01*
X128639887Y-62532799D02*
X128750306Y-62053488D01*
X127405096Y-70298580D02*
X127452753Y-69808994D01*
X127285930Y-71769055D02*
X127321694Y-71278496D01*
X127361408Y-70788438D02*
X127405096Y-70298580D01*
X127504343Y-69320043D02*
X127559921Y-68831211D01*
X127321694Y-71278496D02*
X127361408Y-70788438D01*
X127182582Y-73733493D02*
X127202463Y-73242034D01*
X127226314Y-72750818D02*
X127254141Y-72259768D01*
X127146796Y-75208452D02*
X127154750Y-74716664D01*
X127896865Y-66395626D02*
X127976047Y-65910308D01*
X127452753Y-69808994D02*
X127504343Y-69320043D01*
X128533373Y-63012877D02*
X128639887Y-62532799D01*
X127146795Y-76683553D02*
X127146796Y-75208452D01*
X127750280Y-67368152D02*
X127821601Y-66881636D01*
X127166683Y-74224873D02*
X127182582Y-73733493D01*
X128059179Y-65425475D02*
X128146200Y-64941499D01*
X127254141Y-72259768D02*
X127285930Y-71769055D01*
X129230578Y-60145846D02*
X129360246Y-59671527D01*
X127559921Y-68831211D02*
X127619419Y-68343106D01*
X129360246Y-59671527D02*
X129493782Y-59198132D01*
X127154750Y-74716664D02*
X127166683Y-74224873D01*
X129104725Y-60621304D02*
X129230578Y-60145846D01*
X127202463Y-73242034D02*
X127226314Y-72750818D01*
X127682867Y-67855446D02*
X127750280Y-67368152D01*
X127821601Y-66881636D02*
X127896865Y-66395626D01*
X127976047Y-65910308D02*
X128059179Y-65425475D01*
X129493782Y-59198132D02*
X129631095Y-58725992D01*
X128146200Y-64941499D02*
X128237136Y-64458208D01*
X128982714Y-61097785D02*
X129104725Y-60621304D01*
X128237136Y-64458208D02*
X128331993Y-63975597D01*
X128331993Y-63975597D02*
X128430731Y-63493856D01*
X128430731Y-63493856D02*
X128533373Y-63012877D01*
X128750306Y-62053488D02*
X128864580Y-61575161D01*
X128864580Y-61575161D02*
X128982714Y-61097785D01*
X129631095Y-58725992D02*
X129772255Y-58254870D01*
X137536620Y-46660000D02*
X139790000Y-46660000D01*
X131949859Y-52246761D02*
X137536620Y-46660000D01*
X140796503Y-37548157D02*
X140964534Y-37343463D01*
X140487669Y-37930639D02*
X140796503Y-37548157D01*
X140181696Y-38315913D02*
X140487669Y-37930639D01*
X139878998Y-38703456D02*
X140181696Y-38315913D01*
X139790000Y-46660000D02*
X139790000Y-38819319D01*
X139790000Y-38819319D02*
X139878998Y-38703456D01*
X170151289Y-17794133D02*
X170198114Y-17780000D01*
X169681602Y-17940051D02*
X170151289Y-17794133D01*
X169213114Y-18089763D02*
X169681602Y-17940051D01*
X168745892Y-18243245D02*
X169213114Y-18089763D01*
X168279849Y-18400527D02*
X168745892Y-18243245D01*
X167815326Y-18561490D02*
X168279849Y-18400527D01*
X167351847Y-18726302D02*
X167815326Y-18561490D01*
X166889849Y-18894807D02*
X167351847Y-18726302D01*
X166429224Y-19067045D02*
X166889849Y-18894807D01*
X165969873Y-19243054D02*
X166429224Y-19067045D01*
X165512148Y-19422696D02*
X165969873Y-19243054D01*
X165055821Y-19606063D02*
X165512148Y-19422696D01*
X164600952Y-19793131D02*
X165055821Y-19606063D01*
X164147533Y-19983903D02*
X164600952Y-19793131D01*
X163695960Y-20178211D02*
X164147533Y-19983903D01*
X154620063Y-25081096D02*
X155032569Y-24813093D01*
X152591226Y-26470352D02*
X152992546Y-26185905D01*
X156282431Y-24029514D02*
X156703371Y-23775001D01*
X152192350Y-26757941D02*
X152591226Y-26470352D01*
X154209950Y-25352286D02*
X154620063Y-25081096D01*
X158406988Y-22791421D02*
X158837838Y-22554152D01*
X151795854Y-27048715D02*
X152192350Y-26757941D01*
X151009851Y-27639931D02*
X151401592Y-27342783D01*
X155863796Y-24287279D02*
X156282431Y-24029514D01*
X149358101Y-28949896D02*
X149466882Y-28860230D01*
X153396090Y-25904757D02*
X153801832Y-25626924D01*
X140964534Y-37343463D02*
X149358101Y-28949896D01*
X151401592Y-27342783D02*
X151795854Y-27048715D01*
X157978116Y-23032141D02*
X158406988Y-22791421D01*
X149466882Y-28860230D02*
X149848919Y-28550479D01*
X160141436Y-21863495D02*
X160579672Y-21640315D01*
X153801832Y-25626924D02*
X154209950Y-25352286D01*
X152992546Y-26185905D02*
X153396090Y-25904757D01*
X149848919Y-28550479D02*
X150233303Y-28243943D01*
X150233303Y-28243943D02*
X150620293Y-27940415D01*
X150620293Y-27940415D02*
X151009851Y-27639931D01*
X155032569Y-24813093D02*
X155447016Y-24548570D01*
X155447016Y-24548570D02*
X155863796Y-24287279D01*
X156703371Y-23775001D02*
X157126161Y-23524018D01*
X157126161Y-23524018D02*
X157551169Y-23276342D01*
X157551169Y-23276342D02*
X157978116Y-23032141D01*
X162350276Y-20783223D02*
X162797201Y-20577927D01*
X158837838Y-22554152D02*
X159270474Y-22320437D01*
X160579672Y-21640315D02*
X161019696Y-21420686D01*
X159270474Y-22320437D02*
X159704975Y-22090234D01*
X159704975Y-22090234D02*
X160141436Y-21863495D01*
X161019696Y-21420686D02*
X161461599Y-21204566D01*
X161461599Y-21204566D02*
X161904981Y-20992148D01*
X161904981Y-20992148D02*
X162350276Y-20783223D01*
X162797201Y-20577927D02*
X163245784Y-20376248D01*
X163245784Y-20376248D02*
X163695960Y-20178211D01*
X181700699Y-15451282D02*
X181211767Y-15503869D01*
X182190167Y-15402637D02*
X181700699Y-15451282D01*
X182679916Y-15357960D02*
X182190167Y-15402637D01*
X182881236Y-15341235D02*
X182679916Y-15357960D01*
X186018000Y-19228000D02*
X186018000Y-18478000D01*
X186018000Y-18478000D02*
X182881236Y-15341235D01*
X173947875Y-16764498D02*
X173469675Y-16879763D01*
X175869072Y-16342314D02*
X175387520Y-16442028D01*
X176351405Y-16246499D02*
X175869072Y-16342314D01*
X176834704Y-16154548D02*
X176351405Y-16246499D01*
X175387520Y-16442028D02*
X174906787Y-16545634D01*
X177318522Y-16066547D02*
X176834704Y-16154548D01*
X177802937Y-15982478D02*
X177318522Y-16066547D01*
X180723199Y-15560418D02*
X180235168Y-15620907D01*
X174426844Y-16653137D02*
X173947875Y-16764498D01*
X181211767Y-15503869D02*
X180723199Y-15560418D01*
X180235168Y-15620907D02*
X179747565Y-15685351D01*
X174906787Y-16545634D02*
X174426844Y-16653137D01*
X179747565Y-15685351D02*
X179260487Y-15753738D01*
X179260487Y-15753738D02*
X178774138Y-15826038D01*
X178288248Y-15902291D02*
X177802937Y-15982478D01*
X178774138Y-15826038D02*
X178288248Y-15902291D01*
X170151296Y-17794130D02*
X169796390Y-17904390D01*
X172992647Y-16998836D02*
X172516336Y-17121829D01*
X173469675Y-16879763D02*
X172992647Y-16998836D01*
X172516336Y-17121829D02*
X172041202Y-17248625D01*
X172041202Y-17248625D02*
X171567062Y-17379272D01*
X171567062Y-17379272D02*
X171094035Y-17513738D01*
X170622117Y-17652023D02*
X170151296Y-17794130D01*
X171094035Y-17513738D02*
X170622117Y-17652023D01*
X203996533Y-17747338D02*
X203525091Y-17619483D01*
X204466406Y-17878855D02*
X203996533Y-17747338D01*
X204935419Y-18014231D02*
X204466406Y-17878855D01*
X205403329Y-18153397D02*
X204935419Y-18014231D01*
X205870181Y-18296367D02*
X205403329Y-18153397D01*
X206335794Y-18443087D02*
X205870181Y-18296367D01*
X206800171Y-18593557D02*
X206335794Y-18443087D01*
X207263255Y-18747757D02*
X206800171Y-18593557D01*
X207725282Y-18905766D02*
X207263255Y-18747757D01*
X208185846Y-19067446D02*
X207725282Y-18905766D01*
X208645037Y-19232826D02*
X208185846Y-19067446D01*
X209102877Y-19401916D02*
X208645037Y-19232826D01*
X209559640Y-19574817D02*
X209102877Y-19401916D01*
X210014759Y-19751318D02*
X209559640Y-19574817D01*
X210468497Y-19931517D02*
X210014759Y-19751318D01*
X210920591Y-20115309D02*
X210468497Y-19931517D01*
X220025749Y-24798737D02*
X219611163Y-24541150D01*
X222067044Y-26136721D02*
X221663122Y-25862525D01*
X220438359Y-25059744D02*
X220025749Y-24798737D01*
X220848744Y-25324016D02*
X220438359Y-25059744D01*
X221257128Y-25591695D02*
X220848744Y-25324016D01*
X222868037Y-26694769D02*
X222468670Y-26414127D01*
X223660073Y-27265823D02*
X223265319Y-26978775D01*
X212268140Y-20688701D02*
X211820720Y-20494032D01*
X221663122Y-25862525D02*
X221257128Y-25591695D01*
X223265319Y-26978775D02*
X222868037Y-26694769D01*
X235114000Y-49618000D02*
X232664000Y-47168000D01*
X217080738Y-23066541D02*
X216652104Y-22832745D01*
X235114000Y-50368000D02*
X235114000Y-49618000D01*
X222468670Y-26414127D02*
X222067044Y-26136721D01*
X217932078Y-23544385D02*
X217507461Y-23303790D01*
X232664000Y-47168000D02*
X232664000Y-36076772D01*
X224052563Y-27556106D02*
X223660073Y-27265823D01*
X224418849Y-27831621D02*
X224052563Y-27556106D01*
X232664000Y-36076772D02*
X224418849Y-27831621D01*
X219611163Y-24541150D02*
X219194566Y-24286958D01*
X211371283Y-20302793D02*
X210920591Y-20115309D01*
X219194566Y-24286958D02*
X218775591Y-24035942D01*
X213158537Y-21089018D02*
X212714205Y-20887085D01*
X218775591Y-24035942D02*
X218354979Y-23788546D01*
X218354979Y-23788546D02*
X217932078Y-23544385D01*
X216652104Y-22832745D02*
X216221788Y-22602527D01*
X217507461Y-23303790D02*
X217080738Y-23066541D01*
X216221788Y-22602527D02*
X215789625Y-22375797D01*
X215789625Y-22375797D02*
X215355356Y-22152421D01*
X215355356Y-22152421D02*
X214919386Y-21932611D01*
X214919386Y-21932611D02*
X214481960Y-21716485D01*
X214481960Y-21716485D02*
X214042489Y-21503750D01*
X211820720Y-20494032D02*
X211371283Y-20302793D01*
X214042489Y-21503750D02*
X213601619Y-21294722D01*
X213601619Y-21294722D02*
X213158537Y-21089018D01*
X212714205Y-20887085D02*
X212268140Y-20688701D01*
X203525091Y-17619483D02*
X200316574Y-20828000D01*
X187018000Y-19228000D02*
X186018000Y-19228000D01*
X188618000Y-20828000D02*
X187018000Y-19228000D01*
X200316574Y-20828000D02*
X188618000Y-20828000D01*
D23*
X196412484Y-136148201D02*
X196898976Y-136077890D01*
X195925410Y-136214579D02*
X196412484Y-136148201D01*
X191426000Y-133972000D02*
X193901399Y-136447400D01*
X193901399Y-136447400D02*
X193972017Y-136440670D01*
X193972017Y-136440670D02*
X194461185Y-136390057D01*
X194461185Y-136390057D02*
X194949645Y-136335522D01*
X195437805Y-136277020D02*
X195925410Y-136214579D01*
X194949645Y-136335522D02*
X195437805Y-136277020D01*
X207399254Y-133546909D02*
X207864460Y-133387813D01*
X206932782Y-133702237D02*
X207399254Y-133546909D01*
X205996344Y-134001488D02*
X206465193Y-133853748D01*
X207864460Y-133387813D02*
X208328167Y-133225029D01*
X205526225Y-134145460D02*
X205996344Y-134001488D01*
X204582624Y-134421959D02*
X205055072Y-134285591D01*
X198839060Y-135757333D02*
X199322496Y-135667379D01*
X199322496Y-135667379D02*
X199804851Y-135573586D01*
X199804851Y-135573586D02*
X200286674Y-135475846D01*
X198354992Y-135843359D02*
X198839060Y-135757333D01*
X202205473Y-135046050D02*
X202682940Y-134928916D01*
X206465193Y-133853748D02*
X206932782Y-133702237D01*
X197870417Y-135925439D02*
X198354992Y-135843359D01*
X203634960Y-134683084D02*
X204109386Y-134554419D01*
X196898976Y-136077890D02*
X197385037Y-136003624D01*
X200767656Y-135374220D02*
X201247849Y-135268698D01*
X197385037Y-136003624D02*
X197870417Y-135925439D01*
X200286674Y-135475846D02*
X200767656Y-135374220D01*
X201247849Y-135268698D02*
X201727188Y-135159293D01*
X201727188Y-135159293D02*
X202205473Y-135046050D01*
X202682940Y-134928916D02*
X203159423Y-134807931D01*
X208328167Y-133225029D02*
X208790786Y-133058414D01*
X203159423Y-134807931D02*
X203634960Y-134683084D01*
X205055072Y-134285591D02*
X205526225Y-134145460D01*
X204109386Y-134554419D02*
X204582624Y-134421959D01*
X227753804Y-121904705D02*
X228124189Y-121581374D01*
X227380938Y-122224927D02*
X227753804Y-121904705D01*
X225090047Y-124082359D02*
X225478071Y-123780546D01*
X224699575Y-124381040D02*
X225090047Y-124082359D01*
X224306693Y-124676558D02*
X224699575Y-124381040D01*
X225863565Y-123475666D02*
X226246723Y-123167564D01*
X214226232Y-130771491D02*
X214668569Y-130557370D01*
X213336050Y-131189150D02*
X213781818Y-130982199D01*
X213781818Y-130982199D02*
X214226232Y-130771491D01*
X212888467Y-131392560D02*
X213336050Y-131189150D01*
X212439301Y-131592323D02*
X212888467Y-131392560D01*
X218992687Y-128221442D02*
X219414302Y-127968844D01*
X215109261Y-130339631D02*
X215548351Y-130118247D01*
X211988567Y-131788434D02*
X212439301Y-131592323D01*
X221900547Y-126381987D02*
X222307113Y-126105996D01*
X227005370Y-122542228D02*
X227380938Y-122224927D01*
X211536142Y-131980944D02*
X211988567Y-131788434D01*
X208790786Y-133058414D02*
X209251906Y-132888113D01*
X228124189Y-121581374D02*
X228491914Y-121255087D01*
X214668569Y-130557370D02*
X215109261Y-130339631D01*
X209251906Y-132888113D02*
X209711646Y-132714084D01*
X223911435Y-124968889D02*
X224306693Y-124676558D01*
X215548351Y-130118247D02*
X215985448Y-129893416D01*
X210170087Y-132536294D02*
X210626888Y-132354878D01*
X210626888Y-132354878D02*
X211082224Y-132169769D01*
X209711646Y-132714084D02*
X210170087Y-132536294D01*
X225478071Y-123780546D02*
X225863565Y-123475666D01*
X211082224Y-132169769D02*
X211536142Y-131980944D01*
X222307113Y-126105996D02*
X222711764Y-125826500D01*
X215985448Y-129893416D02*
X216420807Y-129665008D01*
X216420807Y-129665008D02*
X216854337Y-129433071D01*
X219414302Y-127968844D02*
X219834116Y-127712689D01*
X216854337Y-129433071D02*
X217285765Y-129197749D01*
X217285765Y-129197749D02*
X217715555Y-128958794D01*
X217715555Y-128958794D02*
X218143182Y-128716493D01*
X226246723Y-123167564D02*
X226627304Y-122856436D01*
X222711764Y-125826500D02*
X223113902Y-125543909D01*
X218143182Y-128716493D02*
X218568971Y-128470665D01*
X218568971Y-128470665D02*
X218992687Y-128221442D01*
X219834116Y-127712689D02*
X220251541Y-127453338D01*
X220251541Y-127453338D02*
X220666977Y-127190542D01*
X220666977Y-127190542D02*
X221080299Y-126924380D01*
X221080299Y-126924380D02*
X221491481Y-126654866D01*
X221491481Y-126654866D02*
X221900547Y-126381987D01*
X226627304Y-122856436D02*
X227005370Y-122542228D01*
X223113902Y-125543909D02*
X223513810Y-125258026D01*
X223513810Y-125258026D02*
X223911435Y-124968889D01*
X234948512Y-114518389D02*
X235204000Y-114204577D01*
X234635106Y-114897043D02*
X234948512Y-114518389D01*
X228491914Y-121255087D02*
X233264165Y-116482836D01*
X233350980Y-116386182D02*
X233676424Y-116017911D01*
X233676424Y-116017911D02*
X233999027Y-115646849D01*
X233999027Y-115646849D02*
X234318509Y-115273319D01*
X233264165Y-116482836D02*
X233350980Y-116386182D01*
X234318509Y-115273319D02*
X234635106Y-114897043D01*
X235204000Y-114204577D02*
X235204000Y-101600000D01*
X233004000Y-100000000D02*
X232754000Y-100000000D01*
X234604000Y-101600000D02*
X233004000Y-100000000D01*
X235204000Y-101600000D02*
X234604000Y-101600000D01*
X191426000Y-133680000D02*
X190918000Y-133172000D01*
X191426000Y-133972000D02*
X191426000Y-133680000D01*
X232754000Y-99200000D02*
X233402000Y-98552000D01*
X232754000Y-100000000D02*
X232754000Y-99200000D01*
X244595083Y-98041626D02*
X244771932Y-97582860D01*
X244423322Y-98476678D02*
X244595083Y-98041626D01*
X233402000Y-98552000D02*
X244348000Y-98552000D01*
X244348000Y-98552000D02*
X244423322Y-98476678D01*
X245600091Y-95268763D02*
X245754459Y-94802031D01*
X245441952Y-95734243D02*
X245600091Y-95268763D01*
X245280060Y-96198410D02*
X245441952Y-95734243D01*
X245114447Y-96661179D02*
X245280060Y-96198410D01*
X244771932Y-97582860D02*
X244945042Y-97122739D01*
X244945042Y-97122739D02*
X245114447Y-96661179D01*
X247413965Y-88633607D02*
X247514645Y-88152292D01*
X247201006Y-89593436D02*
X247309464Y-89113783D01*
X246972553Y-90549693D02*
X247088746Y-90071890D01*
X246852573Y-91026261D02*
X246972553Y-90549693D01*
X246728650Y-91502191D02*
X246852573Y-91026261D01*
X246600975Y-91976764D02*
X246728650Y-91502191D01*
X247309464Y-89113783D02*
X247413965Y-88633607D01*
X245905031Y-94334114D02*
X246051838Y-93864918D01*
X247088746Y-90071890D02*
X247201006Y-89593436D01*
X245754459Y-94802031D02*
X245905031Y-94334114D01*
X246051838Y-93864918D02*
X246194855Y-93394525D01*
X246194855Y-93394525D02*
X246334030Y-92923101D01*
X247611402Y-87670317D02*
X247704276Y-87187478D01*
X246334030Y-92923101D02*
X246469413Y-92450481D01*
X247514645Y-88152292D02*
X247611402Y-87670317D01*
X246469413Y-92450481D02*
X246600975Y-91976764D01*
X248554021Y-71035395D02*
X248512339Y-70545649D01*
X248702995Y-73488740D02*
X248681144Y-72997759D01*
X248734790Y-74471398D02*
X248720882Y-73980107D01*
X248744728Y-74962981D02*
X248734790Y-74471398D01*
X248750689Y-75454478D02*
X248744728Y-74962981D01*
X248752676Y-75945973D02*
X248750689Y-75454478D01*
X248681144Y-72997759D02*
X248655308Y-72506665D01*
X248750688Y-76437511D02*
X248752676Y-75945973D01*
X248734788Y-77420609D02*
X248744727Y-76928990D01*
X248720882Y-73980107D02*
X248702995Y-73488740D01*
X248720881Y-77911906D02*
X248734788Y-77420609D01*
X248702994Y-78403253D02*
X248720881Y-77911906D01*
X248655306Y-79385355D02*
X248681142Y-78894252D01*
X248109813Y-84763562D02*
X248179155Y-84276826D01*
X248036570Y-85249494D02*
X248109813Y-84763562D01*
X248417085Y-82324887D02*
X248466687Y-81835836D01*
X248681142Y-78894252D02*
X248702994Y-78403253D01*
X248591750Y-80366422D02*
X248625515Y-79875976D01*
X247959352Y-85735130D02*
X248036570Y-85249494D01*
X247878243Y-86219925D02*
X247959352Y-85735130D01*
X248625515Y-72016004D02*
X248591752Y-71525586D01*
X247704276Y-87187478D02*
X247793221Y-86704021D01*
X248363505Y-82813743D02*
X248417085Y-82324887D01*
X248744727Y-76928990D02*
X248750688Y-76437511D01*
X247793221Y-86704021D02*
X247878243Y-86219925D01*
X248179155Y-84276826D02*
X248244564Y-83789509D01*
X248244564Y-83789509D02*
X248306017Y-83301792D01*
X248512339Y-70545649D02*
X248466690Y-70056176D01*
X248554021Y-80856594D02*
X248591750Y-80366422D01*
X248591752Y-71525586D02*
X248554021Y-71035395D01*
X248306017Y-83301792D02*
X248363505Y-82813743D01*
X248466687Y-81835836D02*
X248512340Y-81346324D01*
X248512340Y-81346324D02*
X248554021Y-80856594D01*
X248655308Y-72506665D02*
X248625515Y-72016004D01*
X248625515Y-79875976D02*
X248655306Y-79385355D01*
X247704280Y-64704537D02*
X247611399Y-64221664D01*
X247793221Y-65187969D02*
X247704280Y-64704537D01*
X247878244Y-65672074D02*
X247793221Y-65187969D01*
X247514646Y-63739705D02*
X247413968Y-63258401D01*
X247959351Y-66156856D02*
X247878244Y-65672074D01*
X248036574Y-66642526D02*
X247959351Y-66156856D01*
X248109814Y-67128436D02*
X248036574Y-66642526D01*
X248417084Y-69567100D02*
X248363506Y-69078255D01*
X248466690Y-70056176D02*
X248417084Y-69567100D01*
X248363506Y-69078255D02*
X248306017Y-68590204D01*
X248306017Y-68590204D02*
X248244563Y-68102475D01*
X248244563Y-68102475D02*
X248179156Y-67615172D01*
X247611399Y-64221664D02*
X247514646Y-63739705D01*
X248179156Y-67615172D02*
X248109814Y-67128436D01*
X244042464Y-52483119D02*
X243850932Y-52030458D01*
X244230410Y-52937513D02*
X244042464Y-52483119D01*
X244595084Y-53850374D02*
X244414537Y-53393066D01*
X244771937Y-54309149D02*
X244595084Y-53850374D01*
X244945043Y-54769259D02*
X244771937Y-54309149D01*
X244414537Y-53393066D02*
X244230410Y-52937513D01*
X245280060Y-55693587D02*
X245114444Y-55230810D01*
X246852570Y-60865724D02*
X246728649Y-60389799D01*
X246972555Y-61342310D02*
X246852570Y-60865724D01*
X247309461Y-62778197D02*
X247201011Y-62298581D01*
X247088741Y-61820085D02*
X246972555Y-61342310D01*
X246728649Y-60389799D02*
X246600978Y-59915240D01*
X247201011Y-62298581D02*
X247088741Y-61820085D01*
X245905032Y-57557885D02*
X245754461Y-57089971D01*
X247413968Y-63258401D02*
X247309461Y-62778197D01*
X246600978Y-59915240D02*
X246469420Y-59441538D01*
X246469420Y-59441538D02*
X246334038Y-58968924D01*
X246334038Y-58968924D02*
X246194852Y-58497463D01*
X246194852Y-58497463D02*
X246051841Y-58027087D01*
X245600089Y-56623228D02*
X245441948Y-56157743D01*
X245114444Y-55230810D02*
X244945043Y-54769259D01*
X246051841Y-58027087D02*
X245905032Y-57557885D01*
X245754461Y-57089971D02*
X245600089Y-56623228D01*
X245441948Y-56157743D02*
X245280060Y-55693587D01*
X242188474Y-50368000D02*
X235114000Y-50368000D01*
X243850932Y-52030458D02*
X242188474Y-50368000D01*
D22*
X247300225Y-82296000D02*
X248306017Y-83301792D01*
X242570000Y-82296000D02*
X247300225Y-82296000D01*
X167207359Y-90932000D02*
X167207359Y-88932000D01*
X167207359Y-88932000D02*
X170762369Y-85376990D01*
X199719359Y-87705359D02*
X199719359Y-91186000D01*
X197390990Y-85376990D02*
X199719359Y-87705359D01*
X170762369Y-85376990D02*
X186722990Y-85376990D01*
X186722990Y-85376990D02*
X188181010Y-85376990D01*
X188181010Y-85376990D02*
X197390990Y-85376990D01*
X151892000Y-108167500D02*
X151855500Y-108204000D01*
X151892000Y-102108000D02*
X151892000Y-108167500D01*
X170762369Y-85376990D02*
X162527010Y-85376990D01*
X151892000Y-96012000D02*
X152908000Y-94996000D01*
X151892000Y-102108000D02*
X151892000Y-96012000D01*
X162527010Y-85376990D02*
X152908000Y-94996000D01*
X199450000Y-113366000D02*
X200025000Y-113366000D01*
X198628000Y-111760000D02*
X198628000Y-112544000D01*
X198628000Y-112544000D02*
X199450000Y-113366000D01*
X167513000Y-113366000D02*
X167513000Y-112353500D01*
X167513000Y-111379000D02*
X168148000Y-110744000D01*
X167513000Y-112353500D02*
X167513000Y-111379000D01*
X184150000Y-110744000D02*
X183896000Y-110744000D01*
X185420000Y-112014000D02*
X184150000Y-110744000D01*
X168148000Y-110744000D02*
X183896000Y-110744000D01*
X167513000Y-111379000D02*
X167259000Y-111379000D01*
X167259000Y-111379000D02*
X166116000Y-112522000D01*
X200025000Y-113366000D02*
X200025000Y-115406000D01*
X200025000Y-115406000D02*
X200406000Y-115787000D01*
X185637500Y-111796500D02*
X185420000Y-112014000D01*
X188468000Y-111796500D02*
X185637500Y-111796500D01*
X219456000Y-82550000D02*
X219710000Y-82296000D01*
X219456000Y-106172000D02*
X219456000Y-82550000D01*
X194890000Y-16256000D02*
X199614848Y-16256000D01*
X190918000Y-19228000D02*
X191918000Y-19228000D01*
X191918000Y-19228000D02*
X194890000Y-16256000D01*
X209720716Y-19154618D02*
X210179246Y-19332443D01*
X209260581Y-18980440D02*
X209720716Y-19154618D01*
X208336670Y-18643460D02*
X208799316Y-18810085D01*
X207407225Y-18321395D02*
X207872597Y-18480548D01*
X201732750Y-16708334D02*
X202211364Y-16821654D01*
X200773057Y-16493369D02*
X201253324Y-16598908D01*
X201253324Y-16598908D02*
X201732750Y-16708334D01*
X200291882Y-16391702D02*
X200773057Y-16493369D01*
X202211364Y-16821654D02*
X202688893Y-16938802D01*
X203641279Y-17184727D02*
X204116104Y-17313500D01*
X199614848Y-16256000D02*
X199809791Y-16293907D01*
X199809791Y-16293907D02*
X200291882Y-16391702D01*
X208799316Y-18810085D02*
X209260581Y-18980440D01*
X202688893Y-16938802D02*
X203165673Y-17059863D01*
X207872597Y-18480548D02*
X208336670Y-18643460D01*
X203165673Y-17059863D02*
X203641279Y-17184727D01*
X205062075Y-17582409D02*
X205533427Y-17722599D01*
X204116104Y-17313500D02*
X204589499Y-17446004D01*
X206940641Y-18166029D02*
X207407225Y-18321395D01*
X204589499Y-17446004D02*
X205062075Y-17582409D01*
X205533427Y-17722599D02*
X206003772Y-17866640D01*
X206003772Y-17866640D02*
X206472904Y-18014470D01*
X206472904Y-18014470D02*
X206940641Y-18166029D01*
X220680525Y-24680446D02*
X220927469Y-24839468D01*
X219005362Y-23649009D02*
X219427320Y-23901812D01*
X219427320Y-23901812D02*
X219847123Y-24157959D01*
X218581578Y-23399746D02*
X219005362Y-23649009D01*
X217727769Y-22911392D02*
X218155552Y-23153781D01*
X217297866Y-22672374D02*
X217727769Y-22911392D01*
X212449414Y-20276813D02*
X212898776Y-20476664D01*
X212898776Y-20476664D02*
X213346479Y-20680129D01*
X211998526Y-20080635D02*
X212449414Y-20276813D01*
X211545895Y-19888036D02*
X211998526Y-20080635D01*
X215120402Y-21529989D02*
X215559711Y-21751483D01*
X210179246Y-19332443D02*
X210636276Y-19513950D01*
X210636276Y-19513950D02*
X211091778Y-19699128D01*
X213346479Y-20680129D02*
X213792667Y-20887276D01*
X213792667Y-20887276D02*
X214236999Y-21097945D01*
X218155552Y-23153781D02*
X218581578Y-23399746D01*
X214236999Y-21097945D02*
X214679611Y-21312200D01*
X220264818Y-24417479D02*
X220680525Y-24680446D01*
X214679611Y-21312200D02*
X215120402Y-21529989D01*
X215559711Y-21751483D02*
X215996996Y-21976411D01*
X211091778Y-19699128D02*
X211545895Y-19888036D01*
X215996996Y-21976411D02*
X216432534Y-22204912D01*
X216432534Y-22204912D02*
X216866101Y-22436870D01*
X219847123Y-24157959D02*
X220264818Y-24417479D01*
X216866101Y-22436870D02*
X217297866Y-22672374D01*
X235114000Y-37890362D02*
X224714664Y-27491026D01*
X235114000Y-47168000D02*
X235114000Y-37890362D01*
X213792651Y-20887268D02*
X213346472Y-20680125D01*
X214236974Y-21097933D02*
X213792651Y-20887268D01*
X214679611Y-21312200D02*
X214236974Y-21097933D01*
X215996988Y-21976406D02*
X215559694Y-21751474D01*
X216432516Y-22204902D02*
X215996988Y-21976406D01*
X217297836Y-22672357D02*
X216866082Y-22436859D01*
X217727756Y-22911385D02*
X217297836Y-22672357D01*
X215559694Y-21751474D02*
X215120396Y-21529985D01*
X218155536Y-23153772D02*
X217727756Y-22911385D01*
X222725906Y-26044883D02*
X222321352Y-25765454D01*
X221914377Y-25489185D02*
X221505322Y-25216313D01*
X215120396Y-21529985D02*
X214679611Y-21312200D01*
X221505322Y-25216313D02*
X221093923Y-24946658D01*
X223528532Y-26613767D02*
X223128324Y-26327669D01*
X223128324Y-26327669D02*
X222725906Y-26044883D01*
X220264826Y-24417484D02*
X219847114Y-24157954D01*
X223926190Y-26902927D02*
X223528532Y-26613767D01*
X224714664Y-27491026D02*
X224321656Y-27195412D01*
X224321656Y-27195412D02*
X223926190Y-26902927D01*
X219427318Y-23901811D02*
X219005360Y-23649008D01*
X218581577Y-23399746D02*
X218155536Y-23153772D01*
X222321352Y-25765454D02*
X221914377Y-25489185D01*
X221093923Y-24946658D02*
X220680511Y-24680437D01*
X216866082Y-22436859D02*
X216432516Y-22204902D01*
X220680511Y-24680437D02*
X220264826Y-24417484D01*
X219847114Y-24157954D02*
X219427318Y-23901811D01*
X219005360Y-23649008D02*
X218581577Y-23399746D01*
X230214000Y-74078000D02*
X229616000Y-74676000D01*
X230214000Y-50368000D02*
X230214000Y-74078000D01*
X219710000Y-74676000D02*
X229616000Y-74676000D01*
X171688380Y-17812623D02*
X171218901Y-17946081D01*
X172630669Y-17557076D02*
X172158953Y-17682959D01*
X173103546Y-17434970D02*
X172630669Y-17557076D01*
X173577014Y-17316787D02*
X173103546Y-17434970D01*
X174051668Y-17202377D02*
X173577014Y-17316787D01*
X175003409Y-16985151D02*
X174527029Y-17091856D01*
X180292479Y-16067255D02*
X179808456Y-16131225D01*
X180394599Y-16054598D02*
X180292479Y-16067255D01*
X178842196Y-16270874D02*
X178359985Y-16346549D01*
X186018000Y-22428000D02*
X186018000Y-21678000D01*
X186018000Y-21678000D02*
X180394599Y-16054598D01*
X171218901Y-17946081D02*
X170750466Y-18083345D01*
X178359985Y-16346549D02*
X177878146Y-16426162D01*
X179324935Y-16199112D02*
X178842196Y-16270874D01*
X177878146Y-16426162D02*
X177397330Y-16509605D01*
X177397330Y-16509605D02*
X176917128Y-16596948D01*
X172158953Y-17682959D02*
X171688380Y-17812623D01*
X176917128Y-16596948D02*
X176437455Y-16688208D01*
X179808456Y-16131225D02*
X179324935Y-16199112D01*
X176437455Y-16688208D02*
X175958526Y-16783346D01*
X175958526Y-16783346D02*
X175480680Y-16882292D01*
X175480680Y-16882292D02*
X175003409Y-16985151D01*
X174527029Y-17091856D02*
X174051668Y-17202377D01*
X163428676Y-20787420D02*
X162983436Y-20987595D01*
X168888204Y-18670162D02*
X168425548Y-18826301D01*
X168425548Y-18826301D02*
X167964390Y-18986098D01*
X169351844Y-18517858D02*
X168888204Y-18670162D01*
X169816890Y-18369246D02*
X169351844Y-18517858D01*
X164773864Y-20208598D02*
X164323728Y-20397988D01*
X166132659Y-19662593D02*
X165678260Y-19840928D01*
X164323728Y-20397988D02*
X163875538Y-20590841D01*
X167964390Y-18986098D02*
X167504312Y-19149700D01*
X167504312Y-19149700D02*
X167045754Y-19316950D01*
X167045754Y-19316950D02*
X166588632Y-19487878D01*
X170283126Y-18224401D02*
X169816890Y-18369246D01*
X166588632Y-19487878D02*
X166132659Y-19662593D01*
X170750466Y-18083345D02*
X170283126Y-18224401D01*
X165678260Y-19840928D02*
X165225340Y-20022926D01*
X165225340Y-20022926D02*
X164773864Y-20208598D01*
X163875538Y-20590841D02*
X163428676Y-20787420D01*
X169351828Y-18517863D02*
X169816740Y-18369294D01*
X168888173Y-18670173D02*
X169351828Y-18517863D01*
X167964355Y-18986110D02*
X168425516Y-18826312D01*
X167504297Y-19149705D02*
X167964355Y-18986110D01*
X167045746Y-19316953D02*
X167504297Y-19149705D01*
X166588588Y-19487895D02*
X167045746Y-19316953D01*
X166132657Y-19662593D02*
X166588588Y-19487895D01*
X165678257Y-19840930D02*
X166132657Y-19662593D01*
X165225323Y-20022933D02*
X165678257Y-19840930D01*
X164773840Y-20208608D02*
X165225323Y-20022933D01*
X164323700Y-20398000D02*
X164773840Y-20208608D01*
X163875497Y-20590858D02*
X164323700Y-20398000D01*
X154459669Y-25726655D02*
X154866758Y-25457464D01*
X154866758Y-25457464D02*
X155276214Y-25191443D01*
X152852892Y-26836470D02*
X153251340Y-26554060D01*
X157354326Y-23911899D02*
X157776169Y-23666068D01*
X152457072Y-27121855D02*
X152852892Y-26836470D01*
X150512410Y-28596945D02*
X150896554Y-28295650D01*
X151672105Y-27702413D02*
X152063476Y-27410502D01*
X153251340Y-26554060D02*
X153651864Y-26275015D01*
X160782229Y-22042163D02*
X161219149Y-21824084D01*
X152063476Y-27410502D02*
X152457072Y-27121855D01*
X159913923Y-22488797D02*
X160347310Y-22263655D01*
X151283304Y-27997331D02*
X151672105Y-27702413D01*
X154054627Y-25999223D02*
X154459669Y-25726655D01*
X155687562Y-24928897D02*
X156101200Y-24669576D01*
X144690000Y-34270335D02*
X149751664Y-29208671D01*
X168425516Y-18826312D02*
X168888173Y-18670173D01*
X149751664Y-29208671D02*
X150130942Y-28901156D01*
X144690000Y-46660000D02*
X144690000Y-34270335D01*
X153651864Y-26275015D02*
X154054627Y-25999223D01*
X150130942Y-28901156D02*
X150512410Y-28596945D01*
X150896554Y-28295650D02*
X151283304Y-27997331D01*
X158199879Y-23423718D02*
X158625682Y-23184721D01*
X155276214Y-25191443D02*
X155687562Y-24928897D01*
X161219149Y-21824084D02*
X161657625Y-21609641D01*
X156101200Y-24669576D02*
X156516873Y-24413634D01*
X158625682Y-23184721D02*
X159053355Y-22949202D01*
X156516873Y-24413634D02*
X156934679Y-24161016D01*
X156934679Y-24161016D02*
X157354326Y-23911899D01*
X157776169Y-23666068D02*
X158199879Y-23423718D01*
X159053355Y-22949202D02*
X159482852Y-22717182D01*
X159482852Y-22717182D02*
X159913923Y-22488797D01*
X160347310Y-22263655D02*
X160782229Y-22042163D01*
X161657625Y-21609641D02*
X162097816Y-21398751D01*
X162097816Y-21398751D02*
X162539718Y-21191418D01*
X162539718Y-21191418D02*
X162983432Y-20987597D01*
X162983432Y-20987597D02*
X163428667Y-20787423D01*
X163428667Y-20787423D02*
X163875497Y-20590858D01*
X169816842Y-18369294D02*
X169816890Y-18369246D01*
X169816740Y-18369294D02*
X169816842Y-18369294D01*
X128773190Y-64064237D02*
X128679057Y-64543167D01*
X128871196Y-63586066D02*
X128773190Y-64064237D01*
X128973102Y-63108536D02*
X128871196Y-63586066D01*
X129188419Y-62156298D02*
X129078792Y-62632168D01*
X129301807Y-61681675D02*
X129188419Y-62156298D01*
X129419096Y-61207709D02*
X129301807Y-61681675D01*
X129540207Y-60734740D02*
X129419096Y-61207709D01*
X129665117Y-60262842D02*
X129540207Y-60734740D01*
X129793829Y-59792016D02*
X129665117Y-60262842D01*
X131632539Y-54232593D02*
X131458843Y-54688672D01*
X131809980Y-53777776D02*
X131632539Y-54232593D01*
X132175810Y-52872662D02*
X131991123Y-53324336D01*
X131991123Y-53324336D02*
X131809980Y-53777776D01*
X129926375Y-59322131D02*
X129793829Y-59792016D01*
X139790000Y-49860000D02*
X135188472Y-49860000D01*
X129078792Y-62632168D02*
X128973102Y-63108536D01*
X131458843Y-54688672D02*
X131288764Y-55146342D01*
X131288764Y-55146342D02*
X131122463Y-55605175D01*
X131122463Y-55605175D02*
X130959772Y-56065638D01*
X130959772Y-56065638D02*
X130800999Y-56526853D01*
X130800999Y-56526853D02*
X130645761Y-56989927D01*
X130645761Y-56989927D02*
X130494307Y-57454141D01*
X130494307Y-57454141D02*
X130346714Y-57919244D01*
X135188472Y-49860000D02*
X132175810Y-52872662D01*
X130346714Y-57919244D02*
X130202786Y-58385848D01*
X130202786Y-58385848D02*
X130062696Y-58853401D01*
X130062696Y-58853401D02*
X129926375Y-59322131D01*
X142150000Y-99250000D02*
X141452000Y-98552000D01*
X142150000Y-100000000D02*
X142150000Y-99250000D01*
X132080000Y-98552000D02*
X131921578Y-98393578D01*
X141452000Y-98552000D02*
X132080000Y-98552000D01*
X129665122Y-91629183D02*
X129793828Y-92099989D01*
X129419092Y-90684282D02*
X129540206Y-91157264D01*
X129301828Y-90210416D02*
X129419092Y-90684282D01*
X129188417Y-89735703D02*
X129301828Y-90210416D01*
X128679057Y-87348836D02*
X128773178Y-87827712D01*
X129540206Y-91157264D02*
X129665122Y-91629183D01*
X129793828Y-92099989D02*
X129926358Y-92569817D01*
X128773178Y-87827712D02*
X128871193Y-88305929D01*
X128871193Y-88305929D02*
X128973088Y-88783408D01*
X128973088Y-88783408D02*
X129078783Y-89259796D01*
X129078783Y-89259796D02*
X129188417Y-89735703D01*
X131632572Y-97659492D02*
X131809960Y-98114174D01*
X131458828Y-97203294D02*
X131632572Y-97659492D01*
X131122454Y-96286801D02*
X131288742Y-96745597D01*
X130959764Y-95826342D02*
X131122454Y-96286801D01*
X130801000Y-95365156D02*
X130959764Y-95826342D01*
X130645778Y-94902130D02*
X130801000Y-95365156D01*
X130494295Y-94437826D02*
X130645778Y-94902130D01*
X130346731Y-93972817D02*
X130494295Y-94437826D01*
X130202804Y-93506216D02*
X130346731Y-93972817D01*
X130062657Y-93038470D02*
X130202804Y-93506216D01*
X129926371Y-92569861D02*
X130062657Y-93038470D01*
X129793832Y-92100001D02*
X129926371Y-92569861D01*
X129665127Y-91629202D02*
X129793832Y-92100001D01*
X129188424Y-89735736D02*
X129301832Y-90210432D01*
X129078790Y-89259825D02*
X129188424Y-89735736D01*
X128973093Y-88783430D02*
X129078790Y-89259825D01*
X128679054Y-87348824D02*
X128773183Y-87827737D01*
X128588770Y-86868999D02*
X128679054Y-87348824D01*
X128502408Y-86388684D02*
X128588770Y-86868999D01*
X128419879Y-85907370D02*
X128502408Y-86388684D01*
X128341300Y-85425744D02*
X128419879Y-85907370D01*
X128266582Y-84943262D02*
X128341300Y-85425744D01*
X128195785Y-84460316D02*
X128266582Y-84943262D01*
X128128870Y-83976617D02*
X128195785Y-84460316D01*
X128065893Y-83492581D02*
X128128870Y-83976617D01*
X131809960Y-98114174D02*
X131921578Y-98393577D01*
X127951666Y-69369175D02*
X127900474Y-69854362D01*
X127770370Y-80578863D02*
X127809797Y-81065375D01*
X127853152Y-70340507D02*
X127809802Y-70826576D01*
X128006844Y-68883860D02*
X127951666Y-69369175D01*
X128065901Y-68399370D02*
X128006844Y-68883860D01*
X128128872Y-67915373D02*
X128065901Y-68399370D01*
X128195780Y-67431732D02*
X128128872Y-67915373D01*
X128871193Y-88305930D02*
X128973093Y-88783430D01*
X127734876Y-71800029D02*
X127703327Y-72287048D01*
X128006846Y-83008172D02*
X128065893Y-83492581D01*
X128588778Y-65022967D02*
X128502411Y-65503307D01*
X127770375Y-71313103D02*
X127734876Y-71800029D01*
X129419099Y-90684309D02*
X129540216Y-91157302D01*
X127604672Y-74725768D02*
X127596805Y-75212155D01*
X128419883Y-65984620D02*
X128341301Y-66466258D01*
X128341301Y-66466258D02*
X128266587Y-66948715D01*
X127809802Y-70826576D02*
X127770375Y-71313103D01*
X127616514Y-74237680D02*
X127604672Y-74725768D01*
X127951666Y-82522838D02*
X128006846Y-83008172D01*
X129301832Y-90210432D02*
X129419099Y-90684309D01*
X128679057Y-64543166D02*
X128588778Y-65022967D01*
X128773183Y-87827737D02*
X128871193Y-88305930D01*
X127596805Y-76679865D02*
X127604670Y-77166255D01*
X129540216Y-91157302D02*
X129665127Y-91629202D01*
X128266587Y-66948715D02*
X128195780Y-67431732D01*
X127703327Y-72287048D02*
X127675704Y-72774497D01*
X127703326Y-79604976D02*
X127734878Y-80092026D01*
X127675704Y-72774497D02*
X127652033Y-73262004D01*
X127652028Y-78629909D02*
X127675698Y-79117421D01*
X127652033Y-73262004D02*
X127632293Y-73749997D01*
X127809797Y-81065375D02*
X127853149Y-81551466D01*
X127632293Y-73749997D02*
X127616514Y-74237680D01*
X127900465Y-82037566D02*
X127951666Y-82522838D01*
X127596805Y-75212155D02*
X127596805Y-76679865D01*
X131288742Y-96745597D02*
X131458828Y-97203294D01*
X127604670Y-77166255D02*
X127616513Y-77654359D01*
X127616513Y-77654359D02*
X127632293Y-78142051D01*
X128502411Y-65503307D02*
X128419883Y-65984620D01*
X127734878Y-80092026D02*
X127770370Y-80578863D01*
X127632293Y-78142051D02*
X127652028Y-78629909D01*
X127900474Y-69854362D02*
X127853152Y-70340507D01*
X127675698Y-79117421D02*
X127703326Y-79604976D01*
X127853149Y-81551466D02*
X127900465Y-82037566D01*
X182874038Y-136065962D02*
X185768000Y-133172000D01*
X178774147Y-136065962D02*
X182874038Y-136065962D01*
X178288254Y-135989708D02*
X178774147Y-136065962D01*
X177802929Y-135909519D02*
X178288254Y-135989708D01*
X177318514Y-135825450D02*
X177802929Y-135909519D01*
X176834709Y-135737451D02*
X177318514Y-135825450D01*
X155863812Y-127604730D02*
X156282426Y-127862482D01*
X151795859Y-124843287D02*
X152192362Y-125134066D01*
X155447030Y-127343437D02*
X155863812Y-127604730D01*
X140796501Y-114343839D02*
X140964492Y-114548485D01*
X154209955Y-126539717D02*
X154620047Y-126810892D01*
X153396084Y-125987238D02*
X153801828Y-126265072D01*
X152591239Y-125421656D02*
X152992550Y-125706097D01*
X165512181Y-132469315D02*
X165969897Y-132648954D01*
X152192362Y-125134066D02*
X152591239Y-125421656D01*
X151401583Y-124549209D02*
X151795859Y-124843287D01*
X166889862Y-132997196D02*
X167351867Y-133165704D01*
X151009861Y-124252076D02*
X151401583Y-124549209D01*
X171094020Y-134378255D02*
X171567056Y-134512724D01*
X154620047Y-126810892D02*
X155032581Y-127078913D01*
X156282426Y-127862482D02*
X156703370Y-128116996D01*
X175387517Y-135449969D02*
X175869078Y-135549685D01*
X150620286Y-123951578D02*
X151009861Y-124252076D01*
X157126192Y-128367999D02*
X157551170Y-128615657D01*
X174426830Y-135238858D02*
X174906788Y-135346364D01*
X172992666Y-134893167D02*
X173469672Y-135012235D01*
X149848932Y-123341530D02*
X150233309Y-123648061D01*
X149466894Y-123031778D02*
X149848932Y-123341530D01*
X172041208Y-134643375D02*
X172516320Y-134770165D01*
X149358139Y-122942134D02*
X149466894Y-123031778D01*
X166429228Y-132824955D02*
X166889862Y-132997196D01*
X138129240Y-110812678D02*
X138412890Y-111214593D01*
X185768000Y-133172000D02*
X186018000Y-133172000D01*
X153801828Y-126265072D02*
X154209955Y-126539717D01*
X137849012Y-110408714D02*
X138129240Y-110812678D01*
X170622105Y-134239971D02*
X171094020Y-134378255D01*
X137298173Y-109593720D02*
X137571987Y-110002395D01*
X161019707Y-130471318D02*
X161461607Y-130687437D01*
X176351391Y-135645496D02*
X176834709Y-135737451D01*
X138412890Y-111214593D02*
X138699708Y-111614101D01*
X162350292Y-131108783D02*
X162797209Y-131314075D01*
X155032581Y-127078913D02*
X155447030Y-127343437D01*
X168279839Y-133491468D02*
X168745909Y-133648759D01*
X152992550Y-125706097D02*
X153396084Y-125987238D01*
X174906788Y-135346364D02*
X175387517Y-135449969D01*
X140181705Y-113576098D02*
X140487660Y-113961349D01*
X137250000Y-109520547D02*
X137298173Y-109593720D01*
X150233309Y-123648061D02*
X150620286Y-123951578D01*
X137250000Y-103200000D02*
X137250000Y-109520547D01*
X170151291Y-134097866D02*
X170622105Y-134239971D01*
X140487660Y-113961349D02*
X140796501Y-114343839D01*
X157978129Y-128859865D02*
X158406995Y-129100581D01*
X138699708Y-111614101D02*
X138989752Y-112011282D01*
X140964492Y-114548485D02*
X149358139Y-122942134D01*
X156703370Y-128116996D02*
X157126192Y-128367999D01*
X163245799Y-131515757D02*
X163695975Y-131713793D01*
X160141446Y-130028509D02*
X160579673Y-130251684D01*
X169213130Y-133802240D02*
X169681633Y-133951956D01*
X175869078Y-135549685D02*
X176351391Y-135645496D01*
X139282979Y-112406080D02*
X139579379Y-112798481D01*
X139879001Y-113188546D02*
X140181705Y-113576098D01*
X157551170Y-128615657D02*
X157978129Y-128859865D01*
X158406995Y-129100581D02*
X158837857Y-129337858D01*
X158837857Y-129337858D02*
X159270455Y-129571551D01*
X161904976Y-130899848D02*
X162350292Y-131108783D01*
X159270455Y-129571551D02*
X159704997Y-129801776D01*
X159704997Y-129801776D02*
X160141446Y-130028509D01*
X160579673Y-130251684D02*
X161019707Y-130471318D01*
X161461607Y-130687437D02*
X161904976Y-130899848D01*
X162797209Y-131314075D02*
X163245799Y-131515757D01*
X163695975Y-131713793D02*
X164147571Y-131908111D01*
X138989752Y-112011282D02*
X139282979Y-112406080D01*
X164147571Y-131908111D02*
X164600978Y-132098878D01*
X164600978Y-132098878D02*
X165055839Y-132285942D01*
X165055839Y-132285942D02*
X165512181Y-132469315D01*
X165969897Y-132648954D02*
X166429228Y-132824955D01*
X137571987Y-110002395D02*
X137849012Y-110408714D01*
X167351867Y-133165704D02*
X167815328Y-133330510D01*
X139579379Y-112798481D02*
X139879001Y-113188546D01*
X167815328Y-133330510D02*
X168279839Y-133491468D01*
X168745909Y-133648759D02*
X169213130Y-133802240D01*
X169681633Y-133951956D02*
X170151291Y-134097866D01*
X171567056Y-134512724D02*
X172041208Y-134643375D01*
X172516320Y-134770165D02*
X172992666Y-134893167D01*
X173469672Y-135012235D02*
X173947860Y-135127497D01*
X173947860Y-135127497D02*
X174426830Y-135238858D01*
D23*
X190918000Y-129972000D02*
X191168000Y-129972000D01*
X238704000Y-100000000D02*
X241808000Y-103104000D01*
X237654000Y-100000000D02*
X238704000Y-100000000D01*
X239005180Y-108963253D02*
X238983447Y-108996556D01*
X239532487Y-108133389D02*
X239270524Y-108549366D01*
X239791051Y-107715348D02*
X239532487Y-108133389D01*
X239270524Y-108549366D02*
X239005180Y-108963253D01*
X240546481Y-106448646D02*
X240298014Y-106873036D01*
X240791358Y-106022519D02*
X240546481Y-106448646D01*
X241808000Y-104161070D02*
X241736437Y-104298145D01*
X241808000Y-103104000D02*
X241808000Y-104161070D01*
X241736437Y-104298145D02*
X241505390Y-104732119D01*
X240046323Y-107295073D02*
X239791051Y-107715348D01*
X240298014Y-106873036D02*
X240046323Y-107295073D01*
X241505390Y-104732119D02*
X241270873Y-105164148D01*
X241270873Y-105164148D02*
X241032900Y-105594215D01*
X241032900Y-105594215D02*
X240791358Y-106022519D01*
X238983447Y-108996556D02*
X237744003Y-110236000D01*
X237744003Y-110236000D02*
X237236000Y-110236000D01*
X221621446Y-125967118D02*
X222024628Y-125693425D01*
X221215662Y-126237808D02*
X221621446Y-125967118D01*
X220397901Y-126769102D02*
X220807845Y-126505116D01*
X219985953Y-127029691D02*
X220397901Y-126769102D01*
X218737419Y-127791498D02*
X219155595Y-127540961D01*
X217894970Y-128282438D02*
X218317140Y-128038700D01*
X217470814Y-128522772D02*
X217894970Y-128282438D01*
X217044546Y-128759769D02*
X217470814Y-128522772D01*
X215754946Y-129449703D02*
X216186627Y-129223224D01*
X215321500Y-129672656D02*
X215754946Y-129449703D01*
X214448764Y-130108261D02*
X214885934Y-129892263D01*
X214010154Y-130320577D02*
X214448764Y-130108261D01*
X213569398Y-130529551D02*
X214010154Y-130320577D01*
X213127257Y-130734817D02*
X213569398Y-130529551D01*
X203034380Y-134323806D02*
X203506068Y-134199969D01*
X208160688Y-132753898D02*
X208619467Y-132588666D01*
X202561733Y-134443816D02*
X203034380Y-134323806D01*
X207700686Y-132915381D02*
X208160688Y-132753898D01*
X201138488Y-134780791D02*
X201613850Y-134672295D01*
X211342220Y-131520067D02*
X211790829Y-131329182D01*
X219155595Y-127540961D02*
X219571940Y-127286923D01*
X201613850Y-134672295D02*
X202088169Y-134559992D01*
X219571940Y-127286923D02*
X219985953Y-127029691D01*
X205381602Y-133666819D02*
X205848035Y-133523976D01*
X214885934Y-129892263D02*
X215321500Y-129672656D01*
X200662249Y-134885444D02*
X201138488Y-134780791D01*
X200185195Y-134986239D02*
X200662249Y-134885444D01*
X204914400Y-133805774D02*
X205381602Y-133666819D01*
X199707367Y-135083168D02*
X200185195Y-134986239D01*
X209076722Y-132419793D02*
X209532658Y-132247205D01*
X216186627Y-129223224D02*
X216616646Y-128993166D01*
X190918000Y-129972000D02*
X191676000Y-129972000D01*
X191676000Y-129972000D02*
X197226097Y-135522098D01*
X197226097Y-135522098D02*
X197307342Y-135509685D01*
X197307342Y-135509685D02*
X197788799Y-135432132D01*
X209532658Y-132247205D02*
X209987338Y-132070874D01*
X202088169Y-134559992D02*
X202561733Y-134443816D01*
X220807845Y-126505116D02*
X221215662Y-126237808D01*
X210440461Y-131890920D02*
X210891999Y-131707354D01*
X198749563Y-135265395D02*
X199228909Y-135176202D01*
X197788799Y-135432132D02*
X198269372Y-135350731D01*
X212237953Y-131134642D02*
X212683375Y-130936544D01*
X199228909Y-135176202D02*
X199707367Y-135083168D01*
X198269372Y-135350731D02*
X198749563Y-135265395D01*
X203506068Y-134199969D02*
X203976502Y-134072387D01*
X203976502Y-134072387D02*
X204445766Y-133941040D01*
X222024628Y-125693425D02*
X222425851Y-125416297D01*
X204445766Y-133941040D02*
X204914400Y-133805774D01*
X205848035Y-133523976D02*
X206312930Y-133377482D01*
X206312930Y-133377482D02*
X206776757Y-133227190D01*
X211790829Y-131329182D02*
X212237953Y-131134642D01*
X206776757Y-133227190D02*
X207239266Y-133073182D01*
X212683375Y-130936544D02*
X213127257Y-130734817D01*
X207239266Y-133073182D02*
X207700686Y-132915381D01*
X208619467Y-132588666D02*
X209076722Y-132419793D01*
X216616646Y-128993166D02*
X217044546Y-128759769D01*
X209987338Y-132070874D02*
X210440461Y-131890920D01*
X218317140Y-128038700D02*
X218737419Y-127791498D01*
X210891999Y-131707354D02*
X211342220Y-131520067D01*
D22*
X175133000Y-113803500D02*
X175133000Y-113366000D01*
X176101000Y-114771500D02*
X175133000Y-113803500D01*
X188468000Y-114771500D02*
X176101000Y-114771500D01*
X149352000Y-102108000D02*
X149352000Y-106172000D01*
X148880500Y-106643500D02*
X148880500Y-108204000D01*
X149352000Y-106172000D02*
X148880500Y-106643500D01*
X148880500Y-112776000D02*
X148880500Y-108204000D01*
M02*
