M48
; DRILL file {KiCad (5.1.4)-1} date 2/10/2020 9:36:10 PM
; FORMAT={-:-/ absolute / inch / decimal}
; #@! TF.CreationDate,2020-02-10T21:36:10-05:00
; #@! TF.GenerationSoftware,Kicad,Pcbnew,(5.1.4)-1
FMAT,2
INCH
T1C0.0157
T2C0.0289
T3C0.0300
T4C0.0394
T5C0.0400
%
G90
G05
T1
X5.6Y-4.14
X5.7Y-2.04
X5.98Y-4.36
X6.2Y-3.46
X6.47Y-4.1
X6.54Y-4.43
X6.54Y-4.52
X6.65Y-4.39
X6.65Y-4.56
X6.71Y-4.56
X6.7515Y-4.7885
X6.8Y-4.59
X6.84Y-3.78
X6.86Y-4.59
X6.91Y-4.59
X6.95Y-4.76
X6.9796Y-3.8404
X6.985Y-3.405
X7.27Y-4.45
X7.3Y-4.41
X7.34Y-5.04
X7.52Y-0.96
X7.7Y-4.56
X7.75Y-4.08
X7.82Y-4.4
X7.85Y-4.37
X7.89Y-4.5585
X7.9Y-4.82
X7.97Y-4.53
X8.03Y-4.58
X8.09Y-4.58
X8.1Y-4.34
X8.12Y-3.48
X8.15Y-4.58
X8.1902Y-4.5802
X8.23Y-4.74
X8.48Y-4.36
X8.48Y-4.4
X8.64Y-4.18
X8.72Y-4.36
X8.72Y-4.4
X8.7513Y-4.9296
X9.0Y-1.86
X9.34Y-4.34
X9.42Y-4.06
T2
X7.65Y-3.9678
X7.65Y-4.2722
X7.75Y-3.9678
X7.75Y-4.2722
X7.85Y-3.9678
X7.85Y-4.2722
X7.95Y-3.9678
X7.95Y-4.2722
X8.05Y-3.9678
X8.05Y-4.2722
X8.15Y-3.9678
X8.15Y-4.2722
X8.25Y-3.9678
X8.25Y-4.2722
X8.35Y-3.9678
X8.35Y-4.2722
X8.45Y-3.9678
X8.45Y-4.2722
X6.37Y-3.9678
X6.37Y-4.2722
X6.47Y-3.9678
X6.47Y-4.2722
X6.57Y-3.9678
X6.57Y-4.2722
X6.67Y-3.9678
X6.67Y-4.2722
X6.77Y-3.9678
X6.77Y-4.2722
X6.87Y-3.9678
X6.87Y-4.2722
X6.97Y-3.9678
X6.97Y-4.2722
X7.07Y-3.9678
X7.07Y-4.2722
X7.17Y-3.9678
X7.17Y-4.2722
T3
X5.41Y-2.26
X5.41Y-3.38
X6.03Y-2.26
X6.03Y-3.38
T4
X5.88Y-4.02
X5.98Y-4.02
X6.08Y-4.02
T5
X8.65Y-2.54
X8.65Y-2.64
X8.65Y-2.74
X8.65Y-2.84
X8.65Y-2.94
X8.65Y-3.04
X8.65Y-3.14
X8.65Y-3.24
X9.55Y-2.54
X9.55Y-2.64
X9.55Y-2.74
X9.55Y-2.84
X9.55Y-2.94
X9.55Y-3.04
X9.55Y-3.14
X9.55Y-3.24
T0
M30
